<svg width="84" height="52" viewBox="0 0 84 52" fill="none" xmlns="http://www.w3.org/2000/svg">
<path d="M56.6837 28.2415L47.0902 0H36.8161L25.8855 28.2305H29.4236V28.4512C29.4236 29.5904 27.8508 37.8312 20.9927 40.8644L18.5518 47.1715L28.2544 51.0215L32.8199 36.9681H49.3719L53.5578 51.984L63.8319 49.2886L60.9635 40.8468H52.6089L56.6815 28.2415H56.6837ZM36.0548 28.4954L41.5714 12.5125L46.9004 28.4954H36.0548Z" fill="#F8F8F8"/>
<path d="M73.7281 7.70076H64.0256L57.2002 28.0656L53.2127 40.406H62.5619L64.0234 35.0416H73.9179L75.4383 40.8188H84L73.726 7.70076H73.7281ZM65.9277 26.9552L68.7831 18.0984L71.6384 26.9552H65.9299H65.9277Z" fill="#F8F8F8"/>
<path d="M28.9725 28.6725H19.7607C19.6363 29.7785 18.9252 33.8868 15.2192 33.8868C10.9394 33.8868 9.79854 29.1692 9.79854 23.297C9.79854 17.4249 11.5109 13.6698 15.6031 13.6698C19.6952 13.6698 19.9788 17.9039 19.9788 17.9039H29.4916C29.4916 17.9039 28.4446 6.06247 15.6031 6.1596C2.75938 6.25673 0 17.4227 0 23.7783C0 30.1339 2.94916 41.3947 15.2192 41.3947C17.6055 41.3947 19.5884 40.9466 21.2418 40.2159C27.2143 37.2975 28.8198 30.3149 28.9725 28.6703V28.6725Z" fill="#F8F8F8"/>
</svg>
