<svg width="182" height="30" viewBox="0 0 182 30" fill="none" xmlns="http://www.w3.org/2000/svg">
<path d="M74.3591 12.1519L76.0138 12.1142C77.6343 12.1142 78.16 11.1981 78.16 8.90686C78.16 6.61559 77.6889 5.56896 76.2548 5.56896H74.3598V29.6516H68.0896V0.574449H77.5026C82.7558 0.574449 84.3763 3.36618 84.3763 7.8595C84.3763 11.0451 83.5668 13.5307 80.5886 14.3162C83.1496 14.7746 84.3428 16.7214 84.3428 20.0644V27.1202C84.3428 28.4076 84.6828 29.4108 84.9012 29.6516H78.5633C78.3885 29.3999 78.1257 28.4512 78.1257 27.1645V19.4319C78.1257 18.0473 77.4138 17.0115 75.9024 17.0115H74.3576V12.1519M14.0533 24.7071C15.1744 23.7765 15.3658 22.6218 15.3658 21.589V17.2422H9.27395V23.1404C9.27395 23.9832 8.58745 24.6672 7.74152 24.6672C6.89559 24.6672 6.2666 23.9832 6.2666 23.1404V6.42991C6.2666 5.58637 6.89559 4.90312 7.74152 4.90312C8.58745 4.90312 9.27395 5.58637 9.27395 6.42991V12.3637H15.3586V6.20796C15.3593 2.80624 13.1272 0.00652783 7.69202 0C2.10974 0 0 2.81204 0 6.21449V23.6612C0 27.0339 2.68704 29.5848 6.12318 29.5848H8.01088L14.0533 24.7071ZM171.447 12.0975V5.55373H173.351C174.786 5.55373 175.257 6.60036 175.257 8.89162C175.257 11.1829 174.731 12.0975 173.11 12.0975H171.448L171.469 16.9948H173.001C174.511 16.9948 175.224 18.0306 175.224 19.4152V27.1485C175.224 28.4359 175.487 29.3846 175.661 29.6356H182C181.78 29.3955 181.442 28.3924 181.442 27.1057V20.0484C181.442 16.7054 180.248 14.7587 177.687 14.3003C180.663 13.5155 181.475 11.0291 181.475 7.845C181.475 3.35168 179.855 0.559942 174.601 0.559942H165.186V29.6356H171.47V16.9948L171.448 12.0975H171.447ZM156.03 24.4924L155.392 19.1751L153.762 5.60813L152.135 19.1766L155.392 19.1751L156.03 24.4924L151.495 24.4953L150.879 29.6349H144.53L149.539 0.504819H157.968L162.998 29.6349H156.649L156.032 24.4917L156.03 24.4924ZM115.949 29.6334V0.568646H122.375V24.1152H129.074V29.6327H115.948L115.949 29.6334ZM106.119 29.6334H112.545V0.568646H106.119V29.6327V29.6334Z" fill="#F8F8F8"/>
</svg>
