<svg width="25" height="25" viewBox="0 0 25 25" fill="none" xmlns="http://www.w3.org/2000/svg">
<path d="M8.20315 23.7741C11.3876 24.1889 14.2162 21.2525 14.2162 18.3679V11.3544C0.623288 16.459 4.86616 23.5714 8.20315 23.7741ZM4.76448 0.848356C8.60526 -0.801318 19.0137 -0.287562 19.0137 4.56248V19.4472C19.0137 23.5243 22.9515 24.9194 24.0654 22.1857C24.412 21.8228 25.0268 22.082 24.7263 22.6995C24.0192 25.5793 17.0448 26.0459 14.6183 22.1857C1.22875 32.1309 -7.31246 12.5469 8.70231 12.2358C13.7078 11.4675 14.267 8.53112 14.267 6.46196C14.267 1.36682 11.6372 0.904915 10.0658 0.904915C8.39727 0.904915 7.04306 1.41867 6.12331 4.04872C4.70902 9.2994 -3.01874 4.60961 4.76448 0.853068" fill="#F8F8F8"/>
</svg>
