<svg width="43" height="37" viewBox="0 0 43 37" fill="none" xmlns="http://www.w3.org/2000/svg">
<path d="M26.7776 10.1959C27.1851 10.3409 27.5932 9.89641 27.3764 9.52891L21.8829 0.216339C21.7127 -0.0721137 21.2873 -0.0721128 21.1171 0.21634L15.6236 9.52892C15.4068 9.89641 15.8149 10.3409 16.2224 10.1959C19.6167 8.98813 23.3833 8.98813 26.7776 10.1959Z" fill="#10203D"/>
<path d="M37.4466 26.5998C37.2298 26.2323 36.6325 26.3559 36.557 26.7738C35.9285 30.2548 34.0452 33.4472 31.2793 35.7204C30.9473 35.9933 31.1365 36.5614 31.5701 36.5614H42.5573C42.8976 36.5614 43.1103 36.2009 42.9401 35.9124L37.4466 26.5998Z" fill="#10203D"/>
<path d="M11.4299 36.5614C11.8635 36.5614 12.0527 35.9933 11.7207 35.7204C8.95479 33.4472 7.07151 30.2547 6.443 26.7738C6.36755 26.3559 5.77024 26.2323 5.55346 26.5998L0.059888 35.9124C-0.110272 36.2009 0.102429 36.5614 0.442748 36.5614H11.4299Z" fill="#10203D"/>
<path d="M13.1496 19.5115C16.8609 13.2202 26.1391 13.2202 29.8504 19.5115C33.5617 25.8029 28.9226 33.667 21.5 33.667C14.0774 33.667 9.43832 25.8029 13.1496 19.5115Z" fill="#10203D"/>
</svg>
