<svg width="110" height="30" viewBox="0 0 110 30" fill="none" xmlns="http://www.w3.org/2000/svg">
<path d="M82.1755 29.1009V0.00435674H88.6087V23.5772H95.3152V29.1009H82.1748H82.1755ZM96.861 29.1009V0.00435674H103.293V23.5772H110V29.1009H96.861ZM70.1778 8.78319C70.1778 13.8929 69.2027 17.5613 63.4276 17.5613H59.9103L59.8878 12.3855L61.806 12.408C63.4268 12.408 63.7016 11.5345 63.7016 8.78319C63.7016 6.03191 63.4276 5.00517 61.7943 5.00517H59.887V12.3855L59.9096 17.5613V29.1132H53.62V0.00653509H63.4268C69.2019 0.00653509 70.1771 3.67346 70.1771 8.78392M23.3962 5.55194V11.3166H30.0598V17.016H23.3962V23.4799L31.3067 23.477L31.3097 29.0921L16.9594 29.0972V0H16.9536H31.0473V5.55194H23.397H23.3962ZM4.20742 24.8559V5.66159H0V0.00508284H15.2321V5.66159H11.0014V29.0181H9.19831L4.20742 24.8552V24.8559Z" fill="#F8F8F8"/>
</svg>
