<svg width="25" height="37" viewBox="0 0 25 37" fill="none" xmlns="http://www.w3.org/2000/svg">
<path d="M19.4556 0.769307V2.82079H19.2136C17.6801 1.04369 15.458 0 12.4197 0C6.49536 0 1.54012 4.27002 0.299263 9.98304C0.103221 10.885 0 11.8224 0 12.7852C0 14.3959 0.297405 15.9334 0.836519 17.3479C1.59952 19.351 2.84669 21.1076 4.41799 22.4773C6.60155 24.3808 9.41148 25.5373 12.4197 25.5703C13.2477 25.5795 14.0092 25.4593 14.7094 25.3043C16.6643 24.8713 18.1387 23.9375 19.2295 22.6396H19.4245C19.4382 23.4155 19.4486 24.1515 19.4259 24.8365C19.3914 25.896 19.2347 26.8191 18.9811 27.6123C18.6388 28.6842 18.2103 29.3751 17.6267 29.9957C16.2715 31.4372 14.5175 31.9812 12.4382 31.9812C11.895 31.9812 11.3418 31.8958 10.7934 31.7552C8.95702 31.2837 7.17483 30.025 6.01677 27.4379L6.01491 27.4386L1.02959 29.4601C1.71351 30.991 2.63468 32.3878 3.78828 33.5121C4.30772 34.0188 4.85649 34.4708 5.43162 34.8676C7.48597 36.2846 9.88413 37 12.5496 37C14.5219 37 16.6156 36.6278 18.2957 35.8296C19.1586 35.4193 19.994 34.9445 20.7203 34.3327C20.9857 34.1092 21.236 33.8748 21.471 33.6297C23.8291 31.1819 24.7462 27.7152 24.8394 24.3625V0.769307H19.4556ZM12.7724 20.5149C8.87645 20.5149 5.71788 17.046 5.71788 12.7668C5.71788 12.5005 5.73013 12.2371 5.75389 11.9777C6.11405 8.0693 9.1189 5.01881 12.7724 5.01881C13.029 5.01881 13.2826 5.032 13.5317 5.05801C16.3141 5.34852 18.5935 7.23405 19.4556 10.1691C19.6439 10.8084 19.7646 11.4978 19.8084 12.2313C19.8191 12.4071 19.8254 12.5859 19.8269 12.7668C19.8351 13.6948 19.7089 14.5912 19.4601 15.4246C19.4586 15.4294 19.4571 15.4341 19.4556 15.4393C18.5753 18.3667 16.179 20.5149 12.7724 20.5149Z" fill="#F8F8F8"/>
</svg>
