<svg width="9" height="11" viewBox="0 0 9 11" fill="none" xmlns="http://www.w3.org/2000/svg">
<path d="M3.71438 1.65928L4.51397 0L5.30891 1.59765C5.40188 1.76358 5.48556 1.7541 5.64362 1.6735L6.32234 1.32743L5.88071 3.56034C5.78309 3.9965 6.03412 4.1245 6.29445 3.82583L7.2707 2.76389L7.52174 3.36597C7.61471 3.54138 7.74488 3.52242 7.91688 3.48449L8.91637 3.26641L8.58166 4.56065L8.57235 4.58436C8.53516 4.75029 8.45613 4.89725 8.63279 4.97784L9.00005 5.15325L6.93133 6.94054C6.71284 7.1681 6.78723 7.23447 6.87091 7.48099L7.0615 8.07833L5.13225 7.72277C4.89516 7.66588 4.72781 7.66588 4.71852 7.86025L4.80219 10.1169H4.21644L4.29082 7.86499C4.29082 7.64218 4.13277 7.64692 3.74227 7.72751L1.95714 8.07359L2.18492 7.47625C2.2686 7.24395 2.28254 7.09224 2.11054 6.9358L0 5.17696L0.38119 4.93044C0.497409 4.8451 0.502055 4.75503 0.450919 4.55591L0.0557832 3.24271L1.06922 3.46553C1.35279 3.52716 1.43647 3.46553 1.5062 3.30434L1.78977 2.707L2.79857 3.8685C2.97987 4.08657 3.23556 3.93961 3.15188 3.63146L2.6684 1.21365L3.41685 1.65454C3.53307 1.72091 3.65859 1.74462 3.72832 1.60239L3.71903 1.64032L3.71438 1.65928Z" fill="#F8F8F8"/>
</svg>
