<svg width="70" height="70" viewBox="0 0 70 70" fill="none" xmlns="http://www.w3.org/2000/svg">
<path d="M0 34.8067C0 15.589 15.6759 0 34.9911 0C54.3064 0 70 15.589 70 34.8067C70 54.0244 54.3241 69.6134 34.9911 69.6134C15.6581 69.6134 0 54.042 0 34.8067ZM14.2201 15.589L10.279 11.8019C4.74005 17.6852 1.29597 25.5766 1.15394 34.2607H6.62186C6.76389 27.0562 9.62212 20.5212 14.2201 15.6067V15.589ZM18.9424 20.1336L15.0368 16.3817C10.6518 21.0848 7.91783 27.3381 7.79356 34.2431H13.2082C13.3502 28.8001 15.4984 23.868 18.9424 20.1336ZM55.7799 54.0244L59.721 57.8116C65.26 51.9282 68.7041 44.0368 68.8461 35.3528H63.3782C63.2361 42.5572 60.3779 49.0923 55.7799 54.0068V54.0244ZM34.423 6.60553V1.12734C25.3158 1.28588 17.0784 5.0202 11.0779 10.9916L15.019 14.7788C20.0254 9.84664 26.8603 6.74644 34.423 6.60553ZM34.423 13.123V7.71526C27.1976 7.87379 20.629 10.8331 15.8357 15.5714L19.7413 19.3234C23.5405 15.6067 28.7243 13.2639 34.423 13.123ZM34.423 20.803V14.2503C29.0439 14.3912 24.1618 16.6107 20.558 20.1336L25.2803 24.6782C27.6769 22.3883 30.8902 20.9439 34.423 20.803ZM34.423 68.5037V63.0255C26.8603 62.867 20.0254 59.7844 15.019 54.8523L11.0779 58.6395C17.0784 64.6109 25.3158 68.3452 34.423 68.5037ZM35.577 14.2327V20.7854C39.1098 20.9263 42.3054 22.3707 44.7198 24.6606L49.4421 20.116C45.8382 16.5931 40.9561 14.3912 35.577 14.2327ZM11.717 50.9418C11.2021 50.6952 10.5808 50.4134 10.208 50.202C9.62212 49.8673 10.0304 49.4974 9.56886 49.1627C9.10728 48.8281 8.9475 48.8633 8.46817 48.5286C8.0066 48.1939 8.84099 48.2292 7.91783 47.8769C7.61603 47.7536 7.56277 48.2292 6.97692 48.1058C6.39107 48.0002 6.42658 46.9257 6.05377 46.9257C5.00634 46.9257 4.86432 45.5693 4.79331 44.671C4.68679 43.0857 5.9295 43.3499 5.9295 43.3499L6.78164 43.7022L7.22546 42.9976C7.22546 42.9976 7.38524 42.9976 7.84682 43.068C7.08344 40.6196 6.65737 38.0302 6.60411 35.3528H1.13619C1.27821 44.0368 4.72229 51.9106 10.2612 57.8116L14.2024 54.0244C13.297 53.0556 12.4626 52.0339 11.6992 50.9418H11.717ZM15.8357 52.4743C15.8357 52.4743 15.6759 52.4215 15.6049 52.4038C15.2853 52.3334 15.019 52.6152 14.6107 52.7561C14.7527 52.9147 14.8948 53.0732 15.0368 53.2317L15.8357 52.4743ZM23.3629 53.1613V53.1965C22.9901 53.7602 22.8303 53.6193 21.6586 53.7249C20.5047 53.8306 20.2562 54.4119 19.4395 54.5352C18.6229 54.6409 18.7472 54.5352 18.0548 53.8659C17.7352 53.5664 17.3447 53.267 16.9363 53.0204L15.8534 54.0596C20.6467 58.798 27.1976 61.7573 34.4408 61.9158V56.5081C30.3754 56.4024 26.594 55.187 23.3807 53.1613H23.3629ZM9.7819 43.3146C10.5985 43.209 10.8826 43.3675 11.646 43.2266C12.4093 43.0857 11.9478 41.3242 11.9478 40.6196C11.9478 39.915 12.6756 39.2456 13.1905 38.541C13.2792 38.4177 13.3858 38.2944 13.4745 38.2064C13.3325 37.2728 13.2437 36.3216 13.2082 35.3704H7.79356C7.84682 38.1535 8.32615 40.831 9.16054 43.3499C9.32032 43.3499 9.5156 43.3499 9.7819 43.3146ZM46.1933 24.8192C46.4418 25.2243 47.4005 26.7039 48.1106 27.25C48.9272 27.8841 50.0279 28.3421 50.6138 28.712C51.1996 29.0819 49.8504 29.1524 50.3652 29.5928C50.8801 30.0155 51.9452 28.8353 52.2293 28.8353C52.5133 28.8353 53.1169 28.9762 53.1169 29.7689C53.1169 30.5616 52.6731 31.1957 53.0459 31.2485C53.401 31.3014 54.5727 29.7337 54.6614 28.5183C54.4484 27.8665 54.2176 27.2324 53.9336 26.5983C53.1524 25.7704 52.0518 25.5942 52.034 25.1362C51.9985 24.3436 52.4423 24.3436 52.7441 24.2731C52.0162 23.0753 51.1819 21.948 50.2409 20.9087L46.1933 24.8016V24.8192ZM29.896 29.0995C30.1978 29.0995 30.5529 29.0995 31.0855 29.0467C32.3104 28.9058 32.0974 26.8977 32.9673 27.1619C33.4999 27.3205 33.9792 27.25 34.423 27.1619V21.9303C31.2275 22.0713 28.2983 23.3924 26.1146 25.4709L29.896 29.1172V29.0995ZM23.9843 28.0955C24.4459 27.9546 24.9429 27.8489 25.3868 27.8137C27.3041 27.6375 27.3041 29.2405 27.3041 29.2405C27.3041 29.2405 27.6592 29.1348 28.2095 29.0819L25.3158 26.2812C24.8187 26.8449 24.3748 27.4614 23.9843 28.0955ZM18.2323 34.2607C18.4276 33.8555 18.6051 33.3799 18.6229 32.8163C18.6939 31.7065 18.9424 30.1036 20.7355 29.9803C22.351 29.8746 20.5935 29.2757 21.4279 29.0115C21.6764 28.941 21.9959 28.8177 22.3688 28.6768C22.9369 27.5318 23.647 26.4573 24.4991 25.5238L19.7768 20.9792C16.5458 24.5021 14.5219 29.1524 14.3799 34.2959H18.2146L18.2323 34.2607ZM17.2737 37.3609C17.3447 37.7308 18.0193 37.8365 17.6642 38.8581V38.8933C17.6642 38.8933 16.9541 39.2632 16.9541 38.8405V38.7524C16.9186 38.3297 16.7056 37.7836 16.7588 37.0438C16.8121 36.3392 17.2204 35.8108 17.54 35.3528H14.3799C14.3977 36.1983 14.4687 37.0262 14.593 37.8365C14.6285 37.8365 14.6817 37.8365 14.7172 37.8541C15.2676 37.9774 15.9599 38.8757 16.457 38.8757C16.7588 38.8757 16.8298 38.7877 16.9363 38.7348V38.8229C16.9363 39.2456 17.6287 38.8757 17.6287 38.8757V38.8405C18.0015 39.0343 18.3566 39.4218 18.4809 39.8974C18.6584 40.5667 19.2975 42.5748 19.475 42.8567C19.6526 43.1561 19.9011 44.0545 19.9011 44.759C19.9011 45.4636 20.4692 45.5517 20.5402 46.0802C20.5935 46.6086 20.7887 47.5774 20.7887 47.5774L20.2739 48.1763L24.4814 44.1249C22.7948 42.2401 21.6231 39.8974 21.1438 37.308C20.9485 37.2552 20.7532 37.2376 20.6112 37.2904C19.9011 37.537 20.8242 38.911 20.1141 38.7524C19.5993 38.6467 19.2265 38.4001 19.3508 38.0126C19.475 37.6251 19.9189 38.0654 19.9189 37.079C19.9189 36.5858 19.0667 36.1631 19.8478 36.1631C20.0431 36.1631 20.4337 36.5858 20.7532 36.5858C20.8598 36.5858 20.9485 36.5858 21.0195 36.5506C20.9663 36.1807 20.9308 35.7931 20.913 35.4056C20.8775 35.3704 20.842 35.3528 20.8065 35.3175H19.8478C19.8123 35.4937 19.6526 35.617 19.2797 35.6346C18.0015 35.6875 18.4276 36.3744 18.3566 36.7267C18.2856 37.0966 17.1494 36.9381 17.2204 37.308L17.2737 37.3609ZM21.0195 33.3095C20.4514 33.0629 19.3685 33.0981 19.3685 33.6618C19.3685 33.8379 19.4395 34.0493 19.5283 34.2607H20.9485C20.9485 33.9436 20.984 33.6265 21.0195 33.3095ZM27.7657 40.9895C26.3454 40.9895 27.7479 38.999 27.3751 38.8933C26.4164 38.6467 26.9313 39.9502 26.5585 39.9502C26.1857 39.9502 25.7241 39.5099 25.7241 39.2633C25.7241 39.0166 25.9194 38.4177 25.4045 38.4177C24.8897 38.4177 24.3038 38.1359 23.86 37.995C23.4517 37.8717 22.9724 37.8012 22.4398 37.6955C22.9191 39.8445 23.9488 41.7645 25.3335 43.3499L27.7834 40.9895H27.7657ZM29.754 38.6291C29.6475 38.541 29.5055 38.4706 29.3457 38.4706C28.8486 38.4706 28.4225 40.0735 28.032 40.7253L29.9493 38.8757C29.9493 38.8757 29.8073 38.6996 29.754 38.6115V38.6291ZM27.7124 35.3704C27.6414 35.5818 27.5526 35.8108 27.3751 36.0045C27.0911 36.304 27.961 36.392 28.6001 36.2687H28.6888C28.6178 35.9693 28.5823 35.6698 28.5468 35.3704H27.7124ZM34.423 28.1836C34.1035 28.0603 33.8017 28.0779 33.8904 28.4126C34.068 28.3773 34.2455 28.3597 34.423 28.3421V28.1836ZM36.2161 40.144C36.4646 39.8445 36.6954 39.5979 36.7132 39.2633C36.8374 37.9245 38.2399 38.8933 38.7548 38.4177C39.2874 37.9245 39.6779 36.5858 39.2163 36.2687C38.7548 35.9517 40.4236 36.1807 40.2993 35.6346C40.175 35.0886 38.879 35.7579 38.7548 35.2647C38.6305 34.7715 37.7428 34.7186 38.3109 32.1117C38.4352 31.5128 37.1748 31.9884 36.9617 30.3854C36.9262 30.0507 35.6657 30.2621 35.3107 29.9627C34.9911 29.6984 34.8491 29.5047 34.7959 29.3462C34.5828 29.3462 34.3698 29.3814 34.1745 29.399C34.281 29.9274 34.281 30.4207 33.9615 30.6144C33.4466 30.9315 32.985 30.8786 32.6122 31.1252C32.2394 31.3718 32.7365 31.6713 32.2927 31.9707C31.8489 32.2702 30.9967 32.4816 31.0677 32.9043C31.1387 33.3271 31.8133 33.5208 31.6003 33.7498C31.3873 33.9964 30.8902 33.3799 30.6949 33.8027C30.4996 34.2254 30.6949 35.4056 30.1801 35.4056C29.7185 35.4056 30.1801 34.613 29.5232 34.3487C29.5232 34.4897 29.5232 34.6306 29.5232 34.7539C29.5232 35.1238 29.5587 35.4761 29.6297 35.8108C29.7007 35.8108 29.7895 35.8108 29.8783 35.8108C30.4464 35.8636 29.754 36.1278 30.4464 36.1278C31.1387 36.1278 30.9257 34.8948 31.405 34.9476C31.8666 35.0005 31.6536 36.85 31.0855 37.2904C30.5174 37.7132 30.5884 36.9205 30.3931 37.3432C30.3576 37.4137 30.3398 37.4842 30.3221 37.5546C30.4996 37.8541 30.7127 38.1359 30.9435 38.4001C31.6181 38.4001 31.476 37.4137 31.9199 37.2904C32.3637 37.1671 31.8311 35.9341 32.9318 35.8108C34.0325 35.6875 34.5828 35.4056 34.9201 36.1278C35.2574 36.85 34.1567 38.9462 33.6597 39.0166C32.5057 39.1576 31.8666 38.8933 31.8666 39.1399C31.8666 39.1576 31.8666 39.1752 31.8666 39.2104C32.7543 39.8445 33.8549 40.2144 35.0444 40.2144C35.4527 40.2144 35.861 40.1616 36.2338 40.0911L36.2161 40.144ZM35.5947 43.4027C36.0208 43.1033 36.2516 42.8214 36.4114 42.4867C37.0505 41.1304 35.5237 42.4691 35.648 41.377V41.2889H35.5947V43.4203V43.4027ZM34.4408 47.2427C34.21 47.278 34.0147 47.2603 33.8727 47.1723C33.4466 46.8552 33.3756 45.3756 34.4408 45.217V41.2713C33.0383 41.148 31.7601 40.5844 30.7659 39.7036L26.1324 44.1601C28.3338 46.2387 31.2453 47.5598 34.4408 47.7007V47.2427ZM35.5947 47.1194C35.8255 46.9785 36.1451 46.8728 36.6599 46.8376C38.0447 46.7495 37.8849 47.1018 38.2754 47.2956C39.8377 46.8904 41.2757 46.1858 42.5539 45.2699C42.2876 44.8647 41.8615 45.7455 41.2757 45.6222C40.6898 45.4989 40.5833 44.8119 41.2757 44.2658C41.9681 43.7198 42.5362 43.4556 42.2344 43.0856C41.9148 42.7157 40.9561 43.1737 40.6366 43.7198C40.317 44.2658 40.4413 46.0625 39.9442 46.1154C39.4294 46.1682 38.9323 46.1154 38.0802 45.8688C36.0386 45.2523 36.1628 46.5205 35.7723 46.7143L35.5947 46.82V47.1194ZM34.4408 54.4295C33.9615 54.4648 33.5886 54.4295 32.772 54.2005C31.4938 53.8306 30.2156 51.8402 30.2156 51.4174C30.2156 50.9947 30.7304 50.8009 30.8547 50.5015C30.979 50.202 31.05 49.744 31.1742 49.3917C31.2453 49.1803 31.5826 48.8104 31.9554 48.511C29.4167 47.9473 27.1443 46.6967 25.3158 44.9704L21.1083 49.0218C21.8362 49.3389 21.3213 49.6559 21.8717 50.2901C22.4575 50.9594 23.0789 50.9242 23.5405 51.3646C23.7357 51.5583 23.789 51.8049 23.7712 52.0868C26.8603 54.0949 30.5174 55.2927 34.4408 55.416V54.4648V54.4295ZM38.5772 55.0813C38.4352 54.7466 38.3287 54.3943 38.1512 54.1829C37.7784 53.7778 36.7487 54.1477 35.5947 54.2886V55.3631C36.6067 55.3279 37.6008 55.2398 38.5772 55.0637V55.0813ZM45.0571 61.951C44.702 61.951 44.3115 61.8101 43.9209 61.5987C43.4948 61.3697 43.0687 61.0703 42.6959 60.8413C41.9681 60.3657 40.9561 59.4321 40.3703 58.6218C39.8022 57.8292 40.9561 56.9484 39.4294 56.0501C38.1867 56.3143 36.8907 56.4552 35.577 56.4905V61.8982C38.0269 61.8453 40.4058 61.4754 42.6604 60.8237C43.051 61.0879 43.4771 61.3697 43.9209 61.6164C41.2934 62.4795 38.4885 62.9727 35.5947 63.0255V68.5037C44.702 68.3452 52.9394 64.6109 58.9399 58.6395L54.9987 54.8523C53.2057 56.6314 51.1641 58.1639 48.945 59.4145C47.578 60.5947 45.5897 61.9686 45.0748 61.9686L45.0571 61.951ZM47.1697 47.2956C45.0748 47.5422 43.8676 45.9921 43.5126 46.2211C43.1398 46.4677 43.1398 46.6438 43.1398 46.8552C43.1398 47.0666 46.3886 47.824 47.2407 47.8945C47.4005 47.8945 47.5425 47.8592 47.6668 47.7888L47.1697 47.3132V47.2956ZM51.3949 35.3528C51.4482 35.4937 51.4837 35.617 51.5192 35.7931C51.5902 36.3392 53.5608 38.1535 53.5608 38.8229C53.5608 39.4922 52.4601 39.3866 51.6967 39.4922C50.1699 39.7036 50.1877 40.144 49.7084 40.1264C49.2823 40.0911 49.5131 39.5099 49.3888 39.6155C49.1403 39.8622 48.4124 41.2185 48.0928 41.7293C47.7555 42.2754 46.9211 42.7157 46.3175 43.1033C46.1223 43.3675 45.9092 43.6493 45.6784 43.8959C45.8915 44.3011 46.9567 43.5789 47.3827 43.4556C47.8265 43.3323 47.8265 42.4691 48.3591 42.3987C48.8917 42.3458 48.9272 42.6453 49.2468 43.3851C49.5663 44.1425 48.9272 43.6846 48.7319 45.6574C48.6964 46.0273 48.6964 46.5029 48.3236 46.8376L48.4124 46.9257C48.6787 46.6262 48.9627 46.362 49.3711 46.3268C50.383 46.2035 49.9391 46.82 50.0812 47.5598C50.1522 47.9473 50.3475 48.1058 50.525 48.282C53.5608 44.8119 55.4603 40.3025 55.5846 35.3352H51.3416L51.3949 35.3528ZM55.4958 32.323C55.3361 32.4463 55.1408 32.4992 54.91 32.3935C54.4307 32.1645 55.0343 31.3542 55.2295 30.7025C55.1585 30.3854 55.0875 30.0684 55.0165 29.7513C54.8567 30.2093 54.1821 31.7946 53.614 31.9179C53.0282 32.0412 52.9749 31.9179 52.4068 32.464C51.8565 32.9924 51.9275 33.5913 51.5547 34.2431H55.6201C55.6024 33.5913 55.5491 32.9572 55.4781 32.3407L55.4958 32.323ZM43.7611 25.2948C43.7611 25.2948 43.6901 25.2948 43.6546 25.2948C43.1398 25.2948 42.8912 25.8056 42.5539 25.2948C42.3941 25.0658 42.7137 24.8544 43.1043 24.7135C41.0272 23.0401 38.4175 22.0008 35.5947 21.8775V26.8449C35.8788 26.8096 36.1628 26.8449 36.4114 27.021C38.0802 28.2012 37.9559 25.5942 38.737 26.1579C39.8022 26.9329 37.0505 27.7608 37.6186 28.3069C38.1867 28.8529 38.2399 27.8137 38.8258 27.937C39.4116 28.0603 39.1986 28.6768 40.104 28.6768C41.0094 28.6768 40.6188 26.8801 42.3409 26.6511C42.4651 26.6511 42.5717 26.6159 42.6604 26.5983L43.1575 26.1227C43.1398 25.876 43.0155 25.6294 43.7966 25.5238L43.8854 25.4357L43.7434 25.2948H43.7611ZM59.9696 23.956C59.7033 24.097 59.3837 24.185 59.0109 24.1322C58.1055 24.0089 57.9812 22.177 56.9693 21.7894C53.3122 20.4331 54.2886 19.8518 53.9158 19.4291C53.5963 19.0591 52.7796 19.2001 52.4068 18.8125L51.6257 19.5524C51.75 19.6757 51.892 19.799 52.0518 19.9047C53.3122 20.6621 52.5666 21.4724 53.0637 21.8423C53.5785 22.2122 53.401 21.5957 53.8448 22.0184C54.2886 22.4412 53.7205 22.8992 54.2176 23.4981C54.7325 24.1146 55.1053 24.4493 55.2295 25.0305C55.2828 25.2948 55.3006 26.105 55.3361 26.8977C55.5313 27.4085 55.7266 27.937 55.8864 28.483C56.0817 28.166 56.3125 27.708 56.6498 27.708C56.9871 27.708 56.6498 29.1172 56.348 30.2974C56.6143 31.5656 56.774 32.8691 56.8096 34.2078H62.2242C62.1532 30.5616 61.3543 27.0915 59.9696 23.9384V23.956ZM56.3302 15.043C56.7563 15.4834 57.4132 15.959 57.6262 16.2232C57.9635 16.6459 58.6381 17.65 59.0819 18.5131C59.5258 19.3762 61.7804 22.3707 60.9105 23.2162C62.4373 26.5806 63.3072 30.2973 63.3782 34.2078H68.8461C68.7041 25.5238 65.26 17.65 59.721 11.749L56.3125 15.0254L56.3302 15.043ZM47.4715 9.40627C47.8798 9.23012 48.6609 9.60003 49.1048 8.8426C49.4421 8.26131 50.8978 9.28297 51.1464 8.9659C51.3949 8.64884 50.0812 7.27489 52.1228 8.17324C53.5075 8.78975 52.1228 9.14205 52.1938 9.65288C52.2648 10.1637 52.6376 9.40627 54.1111 11.203C54.839 12.0837 53.7738 11.749 54.5549 12.6122C55.3361 13.4577 55.5136 13.0525 56.0284 13.2463C56.2237 13.3167 56.2947 13.4048 56.2947 13.5281L58.9577 10.9564C52.9572 4.98497 44.7198 1.25065 35.6125 1.09211V6.5703C39.8555 6.65837 43.8854 7.66241 47.4715 9.40627ZM35.7368 9.03636C35.9498 8.93067 36.6244 9.23012 36.6244 9.54719C36.6244 9.86425 36.0741 10.0228 35.7368 9.9171C35.6835 9.9171 35.648 9.86425 35.6125 9.82902V13.0701C40.5478 13.1934 45.0926 14.9725 48.6964 17.8613C48.1816 17.2801 47.7378 16.8045 47.578 16.734C47.1342 16.5579 46.8146 16.047 47.2584 15.7476C47.7023 15.4481 47.0632 14.7788 47.3295 14.3208C48.0928 14.3208 47.8621 15.4129 48.3591 15.9942C48.8562 16.5579 49.0515 15.8533 49.4953 16.3641C49.9391 16.8749 49.5841 18.1784 50.4007 18.5307C50.5605 18.6012 50.7025 18.6892 50.8268 18.7773L51.9985 17.65C51.8032 16.8573 51.5192 15.9237 50.9688 15.6243C50.1522 15.2015 50.2587 16.4522 49.7439 16.1175C48.7852 15.501 48.9805 13.5281 48.9805 13.5281C48.9805 13.5281 47.578 13.2991 48.1461 11.3791C48.2526 11.0092 47.2762 11.0092 47.0809 10.4808C43.6013 8.77214 39.7134 7.7681 35.6125 7.69764V9.19489C35.6125 9.19489 35.6835 9.0892 35.7368 9.05397V9.03636ZM53.8626 53.6897C53.4365 53.8483 52.9749 53.813 52.9039 53.3727C52.8684 53.1965 52.8151 52.9323 52.7796 52.6328L50.312 50.2548C50.1344 50.431 49.9569 50.5895 49.7794 50.7481C49.7439 50.8537 49.7439 50.9594 49.7616 51.0651C49.8859 51.8226 51.4304 52.6152 51.4837 53.0908C51.5547 53.584 50.667 54.7642 50.667 55.2398C50.667 55.5569 50.7558 56.2615 50.6493 56.9661C51.9275 56.0853 53.1169 55.0813 54.2176 53.9892L53.8803 53.6545L53.8626 53.6897ZM53.543 49.5326C54.768 49.427 54.8745 52.2101 54.768 52.8794C54.768 52.8971 54.768 52.9323 54.7502 52.9499L55.0165 53.1965C59.4015 48.4934 62.1355 42.2401 62.2597 35.3352H56.8451C56.703 40.7781 54.5549 45.7102 51.1108 49.4446L52.7086 50.9947C52.7619 50.2372 52.9749 49.5855 53.543 49.5326ZM4.52701 45.8159C4.97084 45.7102 4.86432 46.6791 5.3259 47.2251C5.78747 47.7712 5.89399 48.6695 5.75197 48.8281C5.48567 49.1275 5.3614 48.2292 4.98859 47.3308C4.61578 46.4325 4.49151 46.0449 4.52701 45.8159ZM53.9336 37.3256C55.0165 37.2023 54.839 37.9598 54.1289 37.9598C53.4187 37.9598 52.8684 37.4489 53.9336 37.3256ZM50.1522 44.7767C50.596 44.4772 51.0043 44.8647 50.525 45.0937C50.0634 45.3403 49.7084 45.0761 50.1522 44.7767ZM19.7946 39.3513C20.2384 39.0519 21.055 40.1088 20.3982 40.4258C19.7413 40.7253 19.3508 39.6684 19.7946 39.3513ZM33.4999 39.7036C33.4999 39.5451 33.6774 39.4218 33.9082 39.4218C34.139 39.4218 34.2633 39.4746 34.2633 39.6155C34.2633 39.7565 34.139 39.9855 33.9082 39.9855C33.6774 39.9855 33.4999 39.8622 33.4999 39.7036ZM35.861 37.079C35.861 36.9381 36.0918 36.9029 36.2338 36.9029C36.3759 36.9029 36.4824 37.0086 36.4824 37.1495C36.4824 37.2904 36.3759 37.3961 36.2338 37.3961C36.0918 37.3961 35.861 37.2199 35.861 37.0966V37.079ZM33.4289 34.6834C34.068 35.2295 33.8727 35.5994 33.0916 35.4761C32.3104 35.3528 33.1093 34.4192 33.4289 34.6834ZM38.4885 36.5682C38.6305 36.5682 38.595 37.0966 38.4707 37.0966C38.3464 37.0966 38.3642 36.5682 38.4885 36.5682ZM42.1811 25.2948C42.6249 25.4709 42.4296 26.4045 41.8083 26.2812C41.1692 26.1579 41.7373 25.101 42.1811 25.2948ZM41.1692 26.475C41.4887 26.7216 40.9029 27.7784 40.5123 27.5847C40.1395 27.4085 40.8496 26.2283 41.1692 26.475ZM55.8331 24.9249C56.277 24.8016 56.8451 27.0386 56.4012 27.2148C55.7976 27.4614 55.3893 25.0482 55.8331 24.9249ZM54.0046 20.803C54.1289 20.803 54.5372 21.4371 54.3951 21.4371C53.7915 21.4371 53.614 20.803 54.0046 20.803ZM44.0629 14.5498C44.0629 14.5498 45.1991 14.9901 45.856 14.7964C46.5128 14.6202 46.6726 14.3736 46.6726 14.3736C46.6726 14.3736 46.8679 15.2544 46.211 15.3777C45.5542 15.501 44.0629 14.5498 44.0629 14.5498ZM41.8083 9.0892C42.1988 9.0892 42.4651 9.77618 41.8615 9.77618C41.2579 9.77618 41.4177 9.0892 41.8083 9.0892ZM44.5955 13.7219C44.7198 13.7219 45.1281 14.356 44.9861 14.356C44.3825 14.356 44.2049 13.7219 44.5955 13.7219ZM41.5775 3.36441C41.7373 3.57579 41.471 3.89286 40.6543 3.98093C39.8555 4.069 39.3229 4.56222 38.9145 4.13946C38.4885 3.71671 39.891 3.73432 40.2815 3.36441C40.6721 2.99451 40.9739 2.83597 41.5775 3.36441ZM38.0269 3.69909C38.3642 3.69909 38.737 5.31965 38.5772 5.56626C38.4175 5.81286 38.0269 5.6191 37.3523 5.51341C36.6954 5.40772 36.9972 4.8969 36.4291 4.8969C35.861 4.8969 35.5415 5.26681 35.5947 4.84405C35.648 4.4213 37.6718 3.69909 38.0091 3.69909H38.0269Z" fill="#F8F8F8"/>
</svg>
