<svg width="20" height="21" viewBox="0 0 20 21" fill="none" xmlns="http://www.w3.org/2000/svg">
<path fill-rule="evenodd" clip-rule="evenodd" d="M13.5903 0V12.8995C13.5903 13.9095 13.5903 14.1895 13.5251 14.5829C13.3251 15.8161 12.04 16.5273 9.98775 16.5537C8.47 16.531 7.36024 16.1149 6.84209 15.3811C6.58097 15.0028 6.4545 14.3256 6.4545 13.24V0H0V13.9928C0 15.9334 0.281517 16.8072 1.22399 17.9118C2.77845 19.72 5.81803 20.6657 9.99999 20.6657H10.2285C15.8262 20.6657 18.7189 18.6419 19.5552 16.7467C19.9714 15.8274 20 15.3924 20 13.5388V0H13.5863H13.5903Z" fill="#F8F8F8"/>
</svg>
