<svg width="34" height="40" viewBox="0 0 34 40" fill="none" xmlns="http://www.w3.org/2000/svg">
<path d="M32.9144 13.4523L32.0947 0.549252C31.9974 0.232815 31.4972 0.232815 31.4926 0.549252C31.437 3.32634 26.6205 0.993208 24.907 0.601204C10.0221 -2.86071 0 9.31975 0 19.441C0 32.5519 8.50301 39.6788 19.4421 39.6788C28.1488 39.6788 32.5578 33.9971 33.975 27.8573C34.1556 27.0827 33.3034 27.2433 33.1136 27.8573C30.483 36.4247 23.9483 38.5925 20.7064 38.5453C13.6715 38.4414 7.12752 32.6558 6.88669 19.441C6.58103 2.60845 25.2265 -8.41016 32.3077 13.2445C32.4559 13.7074 32.8125 13.816 32.9144 13.4523Z" fill="#F8F8F8"/>
</svg>
