<svg width="9" height="8" viewBox="0 0 9 8" fill="none" xmlns="http://www.w3.org/2000/svg">
<path fill-rule="evenodd" clip-rule="evenodd" d="M0.863241 3.99016C0.863241 2.09121 2.40355 0.666989 4.37972 0.666989C6.35588 0.666989 7.87504 2.09121 7.87504 3.99016C7.87504 5.88912 6.33049 7.33296 4.37972 7.33296C2.42894 7.33296 0.863241 5.92051 0.863241 3.99016ZM4.37972 7.99995C6.72827 7.99995 8.74252 6.30501 8.74252 3.99016C8.74252 1.67532 6.72827 0 4.37972 0C2.03117 0 0 1.69101 0 3.99016C0 6.28931 2.01001 7.99995 4.37972 7.99995ZM3.46146 4.30796H4.32894L5.64497 6.30501H6.48706L5.07371 4.27658C5.80578 4.18634 6.36435 3.83323 6.36435 3.00537C6.36435 2.09513 5.77614 1.69101 4.60822 1.69101H2.71246V6.30501H3.46146V4.30796ZM3.46146 3.71552V2.28346H4.48551C5.01869 2.28346 5.57727 2.39331 5.57727 2.96614C5.57727 3.67236 5.00177 3.71552 4.3628 3.71552H3.46146Z" fill="#F8F8F8"/>
</svg>
