<svg width="25" height="25" viewBox="0 0 25 25" fill="none" xmlns="http://www.w3.org/2000/svg">
<path d="M8.19555 23.7805C11.3807 24.1953 14.2098 21.2489 14.2098 18.3685V11.363C0.618792 16.4686 4.86714 23.5778 8.19555 23.7852M4.76082 0.845413C8.60698 -0.799878 19.0129 -0.286021 19.0129 4.56028V19.4527C19.0129 23.5212 22.9561 24.9166 24.0702 22.1823C24.4262 21.824 25.0271 22.0833 24.722 22.6962C24.0148 25.5908 17.0482 26.0481 14.6212 22.1823C1.229 32.1342 -7.31393 12.551 8.70406 12.2352C13.7105 11.4667 14.2653 8.53443 14.2653 6.46486C14.2653 1.36398 11.6395 0.897268 10.0724 0.897268C8.40357 0.897268 7.03985 1.41113 6.12916 4.04171C4.71921 9.29344 -3.01935 4.61214 4.76544 0.845413" fill="#F8F8F8"/>
</svg>
