<svg width="29" height="25" viewBox="0 0 29 25" fill="none" xmlns="http://www.w3.org/2000/svg">
<path d="M7.40864 0.364789L0.831224 1.24549C0.425095 1.35022 0.425095 1.55968 1.18133 1.76439C2.61445 1.82151 3.53874 2.80695 3.53874 4.93967V20.6066C3.53874 22.487 0.957262 24.1199 0.420425 24.3484C-0.802629 24.8768 1.03195 24.7673 1.03195 24.7673H11.8014C12.1515 24.7673 13.2812 24.8721 11.848 24.1961C10.2189 23.5724 8.43096 22.2157 8.43096 20.6019V8.83856C8.43096 3.89235 11.596 1.18836 14.7096 1.18836C17.8233 1.18836 20.6848 1.91197 20.6848 8.78143V20.5971C20.6848 22.3157 18.4815 23.8771 17.3051 24.296C16.5395 24.5055 16.2314 24.7626 16.899 24.7626H28.3873C28.9941 24.8197 29.2509 24.6055 28.686 24.4531C25.9365 23.3582 25.5771 21.2779 25.5771 20.6019V6.86293C25.5771 -0.996728 18.1734 0.0458325 15.5732 0.0458325C12.3008 0.0981984 8.83242 2.17856 8.48231 3.11162C8.37495 0.564732 8.06684 0.302902 7.40397 0.355268" fill="#F8F8F8"/>
</svg>
