<svg width="8" height="8" viewBox="0 0 8 8" fill="none" xmlns="http://www.w3.org/2000/svg">
<path d="M0 3.99239C0 1.69803 1.8354 0 4.00995 0C6.1845 0 7.99994 1.69297 7.99994 3.99239C7.99994 6.29181 6.16455 7.99994 4.00995 7.99994C1.85535 7.99994 0 6.30697 0 3.99239ZM4.00995 7.33286C5.79547 7.33286 7.20194 5.91784 7.20194 3.99239C7.20194 2.06695 5.79547 0.672131 4.00995 0.672131C2.22443 0.672131 0.79301 2.09727 0.79301 3.99239C0.79301 5.88752 2.20448 7.33286 4.00995 7.33286ZM3.17703 6.30697H2.48378V1.69803H4.21942C5.29671 1.69803 5.82539 2.09727 5.82539 3.00693C5.82539 3.83068 5.31168 4.18948 4.64835 4.2754L5.94011 6.30697H5.16705L3.96506 4.31078H3.17205V6.30697H3.17703ZM4.00496 3.71444C4.58849 3.71444 5.1072 3.66896 5.1072 2.96145C5.1072 2.39038 4.59847 2.28425 4.11468 2.28425H3.17703V3.70939H4.00496V3.71444Z" fill="#F8F8F8"/>
</svg>
