<svg width="50" height="32" viewBox="0 0 50 32" fill="none" xmlns="http://www.w3.org/2000/svg">
<path fill-rule="evenodd" clip-rule="evenodd" d="M25 25.3681C27.0073 25.3681 28.6443 21.2689 28.7315 16.1281H28.7439C27.5333 16.2411 26.2822 16.2991 25.0031 16.2991C23.724 16.2991 22.4698 16.2411 21.2623 16.1342H21.2747C21.3619 21.2689 22.9989 25.3681 25.0031 25.3681M25.0031 12.2244C26.1982 12.2244 27.359 12.1755 28.47 12.0777C27.9161 8.53139 26.5747 6.02665 25.0062 6.02665C23.4377 6.02665 22.0932 8.53139 21.5424 12.0808C22.6534 12.1755 23.8142 12.2244 25.0093 12.2244H25.0031ZM26.6183 30.3349C37.8096 29.7636 46.6326 23.3002 46.6326 15.4103C46.6326 12.7314 45.6118 10.2145 43.8285 8.03655L43.8068 7.99379C43.6729 11.6379 38.404 14.7199 31.1123 15.844H31.1154C31.1216 16.0792 31.1247 16.3175 31.1247 16.5618C31.1247 23.1719 29.1921 28.7312 26.5716 30.344L26.6183 30.3349ZM25.0031 2.30619C27.6702 2.30619 29.9359 6.27407 30.7761 11.812V11.8028C35.9641 11.0086 39.596 9.18201 39.596 7.05604C39.596 4.20308 33.0605 1.89077 25.0031 1.89077C16.9457 1.89077 10.4102 4.20308 10.4102 7.05604C10.4102 9.18201 14.039 11.0086 19.2269 11.8028V11.812C20.0703 6.27407 22.3391 2.30619 25.0031 2.30619ZM0 15.9845C0 7.15684 11.1944 0 25 0C38.8055 0 50 7.15684 50 15.9845C50 24.8122 38.8055 31.969 25 31.969C11.1944 31.969 0 24.8122 0 15.9845ZM23.4346 30.344C20.8141 28.7312 18.8815 23.1719 18.8815 16.5618C18.8815 16.3205 18.8815 16.0792 18.8877 15.841C11.5959 14.7199 6.32702 11.6379 6.1932 7.99379L6.17141 8.03655C4.38503 10.2114 3.37047 12.7284 3.37047 15.4103C3.37047 23.3002 12.1934 29.7636 23.3848 30.3349L23.4315 30.344H23.4346Z" fill="#F8F8F8"/>
</svg>
