<svg width="65" height="37" viewBox="0 0 65 37" fill="none" xmlns="http://www.w3.org/2000/svg">
<path fill-rule="evenodd" clip-rule="evenodd" d="M52.2422 2.49157C52.7959 2.16178 52.9536 2.36415 52.7919 2.73891C52.5291 3.33853 51.3125 6.93248 42.2868 13.8018C39.9304 15.5932 38.257 16.5975 34.8658 18.4564C40.4195 11.2385 48.5276 4.72514 52.2422 2.48782V2.49157ZM53.1799 0.00316369C51.4378 0.0968537 48.2123 2.48782 46.442 3.91191C39.3888 9.57079 34.1423 14.7725 30.3308 20.2177C22.3803 24.164 12.2431 28.2264 2.17861 31.3931L1.93609 31.4718L0 36.3062L1.10749 35.9089C7.50994 33.6491 18.1928 29.3994 27.8813 24.6774C27.3357 26.0265 27.0608 27.267 27.0608 28.3987C27.0608 29.242 27.2104 30.0252 27.5176 30.7372C28.1279 32.1613 29.3284 33.2369 30.9936 33.8515C33.4714 34.7659 36.8545 34.7847 40.7145 33.7016C50.5728 30.9284 62.2662 22.4251 64.8126 20.7349L64.9096 20.6712C65.0107 20.6037 65.0188 20.5025 64.9743 20.4351C64.9177 20.3564 64.8045 20.3377 64.7075 20.3901L64.5822 20.4613C61.8499 21.9791 48.5721 29.2869 39.9466 31.4343C35.553 32.5286 32.2022 31.929 30.9371 30.2913C30.5005 29.7329 30.2863 29.0246 30.2863 28.2001C30.2863 26.5887 31.1068 24.535 32.6832 22.2527C34.1342 21.4844 35.4883 20.7386 36.709 20.0266C45.1283 15.6382 54.829 7.10862 55.2413 1.9032C55.2413 1.86572 55.2413 1.8245 55.2413 1.78702C55.2413 1.33731 55.0311 0.876355 54.6633 0.531576C54.2672 0.156815 53.7458 -0.0268171 53.188 0.00316369H53.1799Z" fill="#F8F8F8"/>
</svg>
