<svg width="23" height="23" viewBox="0 0 23 23" fill="none" xmlns="http://www.w3.org/2000/svg">
<path d="M16.9562 16.2391C16.9562 19.9857 15.7135 21.7582 11.3744 21.7582H8.67821V11.2824H11.5534C15.4923 11.2824 16.9562 12.6835 16.9562 16.2391ZM22.7698 16.6212C22.7698 12.2695 19.2416 10.6881 14.9657 10.5925V10.4333C18.5992 10.1361 21.5902 8.59715 21.5902 4.89295C21.5902 0.76419 18.2095 0 14.4286 0C9.87884 0 4.53921 0.127365 0 0V1.14629C0.958395 1.0826 3.28593 1.20997 3.28593 2.43055V20.5483C3.28593 21.7158 0.895204 21.8856 0 21.8856V23C4.39177 22.8833 9.59448 23 13.9968 23C18.6413 23 22.7698 21.4186 22.7698 16.6318V16.6212ZM16.0399 5.57223C16.0399 8.45918 14.7867 10.0619 11.4797 10.0619H8.66768V1.19936C9.02576 1.16751 10.2264 1.13567 10.5845 1.13567H11.5534C14.9236 1.13567 16.0399 2.65344 16.0399 5.57223Z" fill="#F8F8F8"/>
</svg>
