<svg width="222" height="109" viewBox="0 0 222 109" fill="none" xmlns="http://www.w3.org/2000/svg">
<path d="M70.8957 48.5793C73.9648 45.4207 79.1603 44.9075 82.728 48.5793C84.3185 50.2161 85.1008 52.3691 85.1008 54.5928V54.7491C85.1008 56.9699 84.3185 59.1257 82.728 60.7567C79.1603 64.4285 73.962 63.9153 70.8957 60.7567C66.7347 56.4744 64.9781 54.6695 64.9781 54.6695C64.9781 54.6695 66.7319 52.8616 70.8957 48.5793ZM53.0483 54.6665C53.0483 54.6665 56.576 58.297 64.9437 66.9088C71.1106 73.2584 81.556 74.2907 88.7287 66.9088C91.9239 63.6204 93.5 59.2909 93.5 54.8258V54.5102C93.5 50.048 91.9211 45.7127 88.7287 42.4272C81.556 35.0453 71.1106 36.0805 64.9437 42.4272C56.5788 51.039 53.0483 54.6695 53.0483 54.6695" fill="#F8F8F8"/>
<path d="M64.9781 54.6667C64.9781 54.6667 66.7319 56.4746 70.8957 60.7569C73.9648 63.9155 79.1603 64.4286 82.728 60.7569C84.3185 59.12 85.1008 56.9671 85.1008 54.7493V54.6696H93.5V54.826C93.5 59.2881 91.9211 63.6235 88.7287 66.9089C81.556 74.2909 71.1106 73.2586 64.9437 66.9089C56.5788 58.2972 53.0483 54.6637 53.0483 54.6637H64.9781" fill="#F8F8F8"/>
<path d="M53.0459 54.6666C53.0459 54.6666 51.2921 56.4716 47.1283 60.7538C44.0592 63.9125 38.8638 64.4256 35.296 60.7538C33.7056 59.117 32.9232 56.9641 32.9232 54.7463V54.59C32.9232 52.3692 33.7056 50.2133 35.296 48.5765C38.8638 44.9047 44.0621 45.4179 47.1283 48.5765C51.2921 52.8617 53.0459 54.6666 53.0459 54.6666ZM64.9757 54.6666L53.0803 42.4244C46.9134 36.0777 36.4681 35.0425 29.2953 42.4244C26.103 45.7128 24.524 50.0423 24.524 54.5074V54.823C24.524 59.2851 26.103 63.6146 29.2953 66.9059C36.4681 74.2879 46.9134 73.2527 53.0803 66.9059C61.4481 58.2971 64.9757 54.6637 64.9757 54.6637" fill="#F8F8F8"/>
<path d="M53.0431 54.6667C53.0431 54.6667 51.2893 56.4716 47.1255 60.7539C44.0563 63.9125 38.8609 64.4257 35.2931 60.7539C33.7027 59.1171 32.9204 56.9641 32.9204 54.7463V54.6667H24.524V54.823C24.524 59.2852 26.103 63.6147 29.2953 66.906C36.4681 74.2879 46.9134 73.2527 53.0803 66.906C61.4452 58.2972 64.9757 54.6637 64.9757 54.6637H53.0431" fill="#F8F8F8"/>
<path d="M64.9781 54.6673H53.0483C53.0483 54.6673 54.8738 56.546 59.0118 60.8046C63.1498 56.546 64.9752 54.6673 64.9752 54.6673" fill="#F8F8F8"/>
<path d="M164.053 44.1552C164.409 44.1552 164.638 43.99 164.638 43.6597C164.638 43.3294 164.409 43.179 164.053 43.179H163.237V44.1581H164.053V44.1552ZM163.936 42.5538C164.306 42.5538 164.5 42.3621 164.5 42.0789C164.5 41.8164 164.306 41.6277 163.936 41.6277H163.237V42.5567H163.936V42.5538ZM162.431 40.9582H163.988C164.893 40.9582 165.314 41.3918 165.314 41.9964C165.314 42.3974 165.099 42.6658 164.75 42.8192C165.162 42.9519 165.452 43.2439 165.452 43.7158C165.452 44.4354 164.905 44.8247 164.062 44.8247H162.431V40.9582Z" fill="#F8F8F8"/>
<path d="M166.237 40.9581H167.048V44.099H168.916V44.8216H166.237V40.9552" fill="#F8F8F8"/>
<path d="M171.291 44.1825C171.953 44.1825 172.414 43.6664 172.414 42.8819C172.414 42.0974 171.958 41.5961 171.291 41.5961C170.623 41.5961 170.176 42.1122 170.176 42.8819C170.176 43.6517 170.637 44.1825 171.291 44.1825ZM171.291 40.8824C172.434 40.8824 173.239 41.717 173.239 42.876C173.239 44.0351 172.44 44.8933 171.291 44.8933C170.141 44.8933 169.342 44.0469 169.342 42.876C169.342 41.7052 170.153 40.8824 171.291 40.8824Z" fill="#F8F8F8"/>
<path d="M175.785 44.1825C176.447 44.1825 176.906 43.6664 176.906 42.8819C176.906 42.0974 176.45 41.5961 175.785 41.5961C175.121 41.5961 174.671 42.1122 174.671 42.8819C174.671 43.6694 175.132 44.1825 175.785 44.1825ZM175.785 40.8824C176.929 40.8824 177.734 41.717 177.734 42.876C177.734 44.0351 176.934 44.8933 175.785 44.8933C174.636 44.8933 173.837 44.0469 173.837 42.876C173.837 41.7199 174.651 40.8824 175.785 40.8824Z" fill="#F8F8F8"/>
<path d="M179.8 44.1433C180.591 44.1433 180.984 43.6626 180.984 42.8781C180.984 42.0936 180.56 41.6364 179.8 41.6364H179.319V44.1462H179.8V44.1433ZM178.508 40.9581H179.743C181.084 40.9581 181.809 41.6689 181.809 42.8722C181.809 44.0754 181.133 44.8216 179.743 44.8216H178.508V40.9552" fill="#F8F8F8"/>
<path d="M163.99 49.1518C164.426 49.1518 164.629 48.907 164.629 48.5767C164.629 48.2463 164.426 48.0134 163.996 48.0134H163.237V49.1488H163.993L163.99 49.1518ZM162.42 47.3439H163.993C165.071 47.3439 165.44 47.9544 165.44 48.5708C165.44 49.1871 165.065 49.8094 163.996 49.8094H163.228V51.2133H162.417V47.3439" fill="#F8F8F8"/>
<path d="M166.126 47.3439H166.937V50.4907H168.805V51.2133H166.126V47.3439Z" fill="#F8F8F8"/>
<path d="M170.628 49.8478H171.648L171.144 48.2758H171.133L170.628 49.8478ZM170.677 47.3439H171.605L172.958 51.2103H172.087L171.858 50.4878H170.425L170.195 51.2103H169.321L170.677 47.3439Z" fill="#F8F8F8"/>
<path d="M173.811 50.1961C174.144 50.4055 174.536 50.55 174.915 50.55C175.316 50.55 175.534 50.376 175.534 50.1283C175.534 49.4057 173.505 49.8923 173.505 48.4266C173.505 47.7895 174.009 47.2705 174.883 47.2705C175.373 47.2705 175.812 47.3973 176.233 47.6008L175.932 48.2584C175.6 48.0844 175.253 48.0019 174.92 48.0019C174.562 48.0019 174.347 48.1788 174.347 48.4118C174.347 49.1226 176.376 48.6212 176.376 50.1135C176.376 50.7653 175.895 51.2785 174.929 51.2785C174.365 51.2785 173.791 51.0779 173.43 50.8449L173.811 50.1961Z" fill="#F8F8F8"/>
<path d="M177.141 47.3439H177.958L179.09 48.9954L180.227 47.3439H181.033V51.2103H180.262V48.5354L179.093 50.2017L177.915 48.5354V51.2103H177.144V47.3439" fill="#F8F8F8"/>
<path d="M182.946 49.8478H183.966L183.461 48.2758H183.45L182.946 49.8478ZM182.991 47.3439H183.92L185.272 51.2103H184.401L184.172 50.4878H182.739L182.51 51.2103H181.636L182.991 47.3439Z" fill="#F8F8F8"/>
<path d="M162.644 56.5832C162.976 56.7926 163.369 56.9371 163.747 56.9371C164.148 56.9371 164.366 56.7631 164.366 56.5154C164.366 55.7928 162.337 56.2794 162.337 54.8137C162.337 54.1766 162.842 53.6576 163.716 53.6576C164.206 53.6576 164.644 53.7844 165.065 53.9879L164.765 54.6456C164.432 54.4716 164.085 54.389 163.747 54.389C163.389 54.389 163.174 54.5659 163.174 54.7989C163.174 55.5097 165.203 55.0083 165.203 56.5006C165.203 57.1524 164.722 57.6656 163.756 57.6656C163.191 57.6656 162.618 57.465 162.257 57.232L162.644 56.5832Z" fill="#F8F8F8"/>
<path d="M166.939 54.4722H165.701V53.732H168.991V54.4722H167.75V57.5984H166.939V54.4722Z" fill="#F8F8F8"/>
<path d="M169.619 53.7355H172.356V54.464H170.43V55.3134H172.147V55.9593H170.43V56.8706H172.379V57.599H169.619V53.7385" fill="#F8F8F8"/>
<path d="M173.221 53.7355H174.038L175.17 55.3871L176.307 53.7355H177.113V57.602H176.342V54.927L175.173 56.5933L173.995 54.927V57.602H173.224V53.7355" fill="#F8F8F8"/>
<path d="M181.268 53.6637C181.787 53.6637 182.24 53.8407 182.632 54.1592L182.185 54.7343C181.93 54.519 181.649 54.3804 181.28 54.3804C180.589 54.3804 180.13 54.8758 180.13 55.6456C180.13 56.4153 180.577 56.955 181.28 56.955C181.661 56.955 181.967 56.8105 182.211 56.5569L182.692 57.0878C182.291 57.4741 181.821 57.6746 181.237 57.6746C180.093 57.6746 179.302 56.8253 179.302 55.6456C179.305 54.5013 180.119 53.6637 181.265 53.6637" fill="#F8F8F8"/>
<path d="M183.329 53.735H186.066V54.4635H184.14V55.3129H185.857V55.9588H184.14V56.8701H186.089V57.5985H183.329V53.738" fill="#F8F8F8"/>
<path d="M186.945 53.7349H187.756V56.8759H189.625V57.5984H186.945V53.732" fill="#F8F8F8"/>
<path d="M190.27 53.7349H191.081V56.8759H192.95V57.5984H190.27V53.732" fill="#F8F8F8"/>
<path d="M193.91 56.5837C194.242 56.7931 194.635 56.9376 195.013 56.9376C195.414 56.9376 195.629 56.7636 195.629 56.5159C195.629 55.7933 193.6 56.2799 193.6 54.8142C193.6 54.1771 194.104 53.6581 194.978 53.6581C195.468 53.6581 195.907 53.7849 196.328 53.9884L196.027 54.6461C195.695 54.4721 195.348 54.3895 195.016 54.3895C194.657 54.3895 194.443 54.5664 194.443 54.7994C194.443 55.5102 196.471 55.0088 196.471 56.5011C196.471 57.1529 195.99 57.6661 195.024 57.6661C194.463 57.6661 193.887 57.4655 193.526 57.2325L193.912 56.5837" fill="#F8F8F8"/>
<path d="M164.226 63.3498C164.888 63.3498 165.347 62.8336 165.347 62.0433C165.347 61.2529 164.891 60.7574 164.226 60.7574C163.561 60.7574 163.111 61.2735 163.111 62.0433C163.111 62.813 163.573 63.3498 164.226 63.3498ZM164.226 60.0555C165.37 60.0555 166.175 60.8901 166.175 62.0492C166.175 63.2082 165.375 64.0664 164.226 64.0664C163.077 64.0664 162.278 63.22 162.278 62.0492C162.278 60.8783 163.091 60.0555 164.226 60.0555Z" fill="#F8F8F8"/>
<path d="M168.587 61.9271C169.02 61.9271 169.226 61.6823 169.226 61.352C169.226 61.0217 169.011 60.7887 168.593 60.7887H167.756V61.9241H168.59L168.587 61.9271ZM166.945 60.1222H168.598C169.673 60.1222 170.043 60.7268 170.043 61.349C170.043 61.8003 169.822 62.2191 169.355 62.4226L170.074 63.9916H169.2L168.618 62.5553H167.756V63.9916H166.945V60.1222Z" fill="#F8F8F8"/>
<path d="M172.623 60.0518C173.182 60.0518 173.629 60.2524 174.007 60.5325L173.583 61.0958C173.308 60.8953 173.001 60.7685 172.643 60.7685C171.941 60.7685 171.488 61.2993 171.488 62.0396C171.488 62.8418 171.915 63.3461 172.643 63.3461C172.895 63.3461 173.125 63.2901 173.296 63.1839V62.4082H172.445V61.839H174.039V63.6086C173.663 63.8917 173.176 64.0598 172.617 64.0598C171.425 64.0598 170.666 63.2193 170.666 62.0337C170.666 60.9159 171.431 60.0518 172.626 60.0518" fill="#F8F8F8"/>
<path d="M175.885 62.6231H176.905L176.401 61.0512H176.39L175.885 62.6231ZM175.931 60.1222H176.86L178.212 63.9886H177.341L177.112 63.266H175.679L175.45 63.9886H174.576L175.931 60.1222Z" fill="#F8F8F8"/>
<path d="M178.81 60.1222H179.581L181.254 62.6615V60.1222H182.025V63.9886H181.254L179.581 61.4611V63.9886H178.81V60.1222Z" fill="#F8F8F8"/>
<path d="M183.164 62.9749C183.496 63.1843 183.889 63.3288 184.267 63.3288C184.668 63.3288 184.886 63.1548 184.886 62.907C184.886 62.1845 182.857 62.6711 182.857 61.2053C182.857 60.5683 183.362 60.0492 184.236 60.0492C184.726 60.0492 185.164 60.1761 185.585 60.3795L185.285 61.0372C184.952 60.8632 184.605 60.7806 184.267 60.7806C183.909 60.7806 183.694 60.9576 183.694 61.1906C183.694 61.9013 185.723 61.4 185.723 62.8923C185.723 63.5441 185.242 64.0572 184.276 64.0572C183.711 64.0572 183.138 63.8567 182.777 63.6237L183.164 62.9749Z" fill="#F8F8F8"/>
<path d="M163.355 68.5877C163.128 68.7381 162.974 68.9445 162.974 69.2159C162.974 69.558 163.237 69.7939 163.676 69.7939C163.959 69.7939 164.217 69.6995 164.421 69.5344C164.045 69.2394 163.687 68.918 163.355 68.5877ZM162.985 68.1659C162.836 67.9506 162.733 67.7147 162.733 67.4375C162.733 66.8801 163.194 66.4436 163.822 66.4436C164.3 66.4436 164.659 66.6707 164.934 66.9862L164.426 67.4316C164.254 67.2428 164.057 67.1278 163.853 67.1278C163.624 67.1278 163.486 67.293 163.486 67.4817C163.486 67.697 163.635 67.8799 163.799 68.0509C164.12 68.3783 164.464 68.6791 164.83 68.9799C164.911 68.7764 164.954 68.5434 164.954 68.2868H165.662C165.662 68.6909 165.558 69.0772 165.378 69.4076C165.581 69.5609 165.799 69.7172 166.011 69.8706L165.59 70.4221C165.381 70.2717 165.166 70.1124 164.951 69.9532C164.607 70.2628 164.151 70.4575 163.624 70.4575C162.761 70.4575 162.257 69.906 162.257 69.2925C162.254 68.7823 162.569 68.4107 162.982 68.163" fill="#F8F8F8"/>
<path d="M169.064 67.2541H167.823V66.5138H171.113V67.2541H169.875V70.3803H169.064V67.2541Z" fill="#F8F8F8"/>
<path d="M171.743 66.5138H172.554V70.3803H171.743V66.5138Z" fill="#F8F8F8"/>
<path d="M173.676 69.3655C174.008 69.5749 174.401 69.7194 174.779 69.7194C175.18 69.7194 175.398 69.5454 175.398 69.2977C175.398 68.5751 173.369 69.0618 173.369 67.596C173.369 66.959 173.874 66.4399 174.748 66.4399C175.238 66.4399 175.676 66.5667 176.097 66.7702L175.797 67.4279C175.464 67.2598 175.117 67.1713 174.785 67.1713C174.427 67.1713 174.212 67.3483 174.212 67.5813C174.212 68.292 176.241 67.7907 176.241 69.283C176.241 69.9347 175.759 70.4479 174.794 70.4479C174.232 70.4479 173.656 70.2474 173.295 70.0144L173.676 69.3655Z" fill="#F8F8F8"/>
<path d="M177.147 69.3655C177.48 69.5749 177.872 69.7194 178.251 69.7194C178.652 69.7194 178.867 69.5454 178.867 69.2977C178.867 68.5751 176.838 69.0618 176.838 67.596C176.838 66.959 177.342 66.4399 178.216 66.4399C178.706 66.4399 179.145 66.5667 179.566 66.7702L179.265 67.4279C178.933 67.2598 178.586 67.1713 178.254 67.1713C177.895 67.1713 177.68 67.3483 177.68 67.5813C177.68 68.292 179.709 67.7907 179.709 69.283C179.709 69.9347 179.228 70.4479 178.262 70.4479C177.698 70.4479 177.125 70.2474 176.763 70.0144L177.15 69.3655" fill="#F8F8F8"/>
<path d="M180.425 66.5138H181.242V68.9115C181.242 69.4336 181.56 69.7344 182.013 69.7344C182.465 69.7344 182.781 69.4365 182.781 68.9115V66.5138H183.597V68.9115C183.597 69.9497 182.935 70.454 182.015 70.454C181.096 70.454 180.425 69.9497 180.425 68.9115V66.5138Z" fill="#F8F8F8"/>
<path d="M184.536 66.5138H187.273V67.2452H185.347V68.0946H187.063V68.7405H185.347V69.6518H187.296V70.3832H184.536V66.5138Z" fill="#F8F8F8"/>
<path d="M188.293 69.3655C188.625 69.5749 189.018 69.7194 189.396 69.7194C189.797 69.7194 190.015 69.5454 190.015 69.2977C190.015 68.5751 187.986 69.0618 187.986 67.596C187.986 66.959 188.491 66.4399 189.365 66.4399C189.855 66.4399 190.293 66.5667 190.714 66.7702L190.413 67.4279C190.081 67.2598 189.734 67.1713 189.396 67.1713C189.038 67.1713 188.823 67.3483 188.823 67.5813C188.823 68.292 190.852 67.7907 190.852 69.283C190.852 69.9347 190.37 70.4479 189.405 70.4479C188.84 70.4479 188.267 70.2474 187.906 70.0144L188.293 69.3655Z" fill="#F8F8F8"/>
<path d="M105.951 38.7945C107.117 38.7945 108.126 39.1927 109 39.9064L108.003 41.1922C107.427 40.7086 106.802 40.4018 105.974 40.4018C104.426 40.4018 103.406 41.5137 103.406 43.2301C103.406 44.9466 104.403 46.1587 105.974 46.1587C106.825 46.1587 107.51 45.8373 108.063 45.271L109.143 46.4596C108.241 47.3237 107.198 47.769 105.891 47.769C103.335 47.769 101.569 45.8668 101.569 43.236C101.566 40.6732 103.38 38.7975 105.948 38.7975" fill="#F8F8F8"/>
<path d="M112.476 46.4387C112.992 46.4387 113.401 46.2027 113.676 45.8695V44.6219C112.679 44.6839 111.742 44.9434 111.742 45.7574C111.742 46.1673 112.032 46.4387 112.476 46.4387ZM113.676 43.6104V43.0412C113.676 42.5575 113.401 42.2744 112.802 42.2744C112.203 42.2744 111.541 42.5221 110.739 42.9261L110.117 41.5665C110.991 41.1094 112 40.7997 112.891 40.7997C114.74 40.7997 115.473 41.7406 115.473 43.0972V45.8547C115.473 46.2116 115.665 46.362 115.989 46.362V47.6361C114.751 47.6361 114.25 47.4503 113.877 46.8221C113.35 47.4149 112.751 47.7629 111.871 47.7629C110.756 47.7629 109.96 47.0462 109.96 45.9963C109.957 44.5541 111.266 43.7873 113.676 43.6133" fill="#F8F8F8"/>
<path d="M117.028 40.9589H118.733L118.816 41.7257C119.283 41.2184 119.954 40.7967 120.762 40.7967C122.215 40.7967 122.814 41.708 122.814 43.2062V47.6035H121.026V43.1679C121.026 42.5751 120.785 42.1917 120.198 42.1917C119.682 42.1917 119.212 42.463 118.831 42.9467V47.6035H117.031V40.9589" fill="#F8F8F8"/>
<path d="M126.427 46.4387C126.943 46.4387 127.352 46.2027 127.627 45.8695V44.6219C126.63 44.6839 125.693 44.9434 125.693 45.7574C125.693 46.1673 125.983 46.4387 126.427 46.4387ZM127.627 43.6104V43.0412C127.627 42.5575 127.352 42.2744 126.753 42.2744C126.154 42.2744 125.492 42.5221 124.69 42.9261L124.068 41.5665C124.942 41.1094 125.951 40.7997 126.842 40.7997C128.691 40.7997 129.421 41.7406 129.421 43.0972V45.8547C129.421 46.2116 129.613 46.362 129.937 46.362V47.6361C128.699 47.6361 128.195 47.4503 127.825 46.8221C127.298 47.4149 126.699 47.7629 125.819 47.7629C124.704 47.7629 123.908 47.0462 123.908 45.9963C123.908 44.5541 125.217 43.7873 127.63 43.6133" fill="#F8F8F8"/>
<path d="M134.991 45.7014V42.8967C134.61 42.4632 134.186 42.2272 133.673 42.2272C132.845 42.2272 132.435 42.9203 132.435 44.2062C132.435 45.492 132.845 46.3414 133.673 46.3414C134.197 46.3414 134.593 46.1438 134.991 45.7014ZM130.644 44.2062C130.644 41.9559 131.652 40.8087 133.14 40.8087C133.848 40.8087 134.507 41.1419 134.988 41.6964V38.2753H136.776V47.6037H135.192L135.086 46.8251C134.581 47.3677 133.971 47.7659 133.105 47.7659C131.664 47.7659 130.644 46.542 130.644 44.2062Z" fill="#F8F8F8"/>
<path d="M143.688 46.4387C144.204 46.4387 144.614 46.2027 144.889 45.8695V44.6219C143.891 44.6839 142.954 44.9434 142.954 45.7574C142.954 46.1673 143.241 46.4387 143.688 46.4387ZM144.889 43.6104V43.0412C144.889 42.5575 144.614 42.2744 144.015 42.2744C143.416 42.2744 142.754 42.5221 141.951 42.9261L141.329 41.5665C142.203 41.1094 143.212 40.7997 144.103 40.7997C145.952 40.7997 146.683 41.7406 146.683 43.0972V45.8547C146.683 46.2116 146.875 46.362 147.198 46.362V47.6361C145.96 47.6361 145.459 47.4503 145.086 46.8221C144.559 47.4149 143.96 47.7629 143.08 47.7629C141.966 47.7629 141.175 47.0462 141.175 45.9963C141.172 44.5541 142.479 43.7873 144.891 43.6133" fill="#F8F8F8"/>
<path d="M148.247 40.9589H149.952L150.035 41.7257C150.505 41.2184 151.173 40.7967 151.981 40.7967C153.434 40.7967 154.033 41.708 154.033 43.2062V47.6035H152.248V43.1679C152.248 42.5751 152.007 42.1917 151.42 42.1917C150.904 42.1917 150.434 42.463 150.053 42.9467V47.6035H148.253V40.9589" fill="#F8F8F8"/>
<path d="M105.515 57.4973C106.306 57.4973 106.821 57.1286 106.821 56.3854C106.821 55.6422 106.306 55.3119 105.515 55.3119H103.692V57.4973H105.515ZM105.251 53.914C106.079 53.914 106.512 53.4804 106.512 52.8522C106.512 52.2594 106.079 51.8377 105.251 51.8377H103.692V53.914H105.251ZM101.89 50.3424H105.371C107.4 50.3424 108.337 51.3068 108.337 52.6664C108.337 53.5659 107.856 54.1617 107.076 54.5067C108.002 54.8017 108.647 55.4593 108.647 56.5093C108.647 58.1137 107.423 58.9896 105.538 58.9896H101.89V50.3424Z" fill="#F8F8F8"/>
<path d="M109.919 49.6656H111.718V58.994H109.919V49.6656Z" fill="#F8F8F8"/>
<path d="M116.106 57.7587C117.009 57.7587 117.525 56.9181 117.525 55.6205C117.525 54.3965 116.971 53.5943 116.106 53.5943C115.241 53.5943 114.665 54.3965 114.665 55.6205C114.665 56.9181 115.169 57.7587 116.106 57.7587ZM116.106 52.1994C117.954 52.1994 119.347 53.559 119.347 55.6087C119.347 57.794 118.04 59.1566 116.106 59.1566C114.172 59.1566 112.853 57.797 112.853 55.6087C112.853 53.559 114.243 52.1994 116.106 52.1994Z" fill="#F8F8F8"/>
<path d="M123.415 57.7587C124.317 57.7587 124.833 56.9181 124.833 55.6205C124.833 54.3965 124.28 53.5943 123.415 53.5943C122.549 53.5943 121.973 54.3965 121.973 55.6205C121.973 56.9181 122.478 57.7587 123.415 57.7587ZM123.415 52.1994C125.263 52.1994 126.656 53.559 126.656 55.6087C126.656 57.794 125.349 59.1566 123.415 59.1566C121.48 59.1566 120.162 57.797 120.162 55.6087C120.159 53.559 121.552 52.1994 123.415 52.1994Z" fill="#F8F8F8"/>
<path d="M131.86 57.0882V54.2835C131.479 53.8499 131.058 53.614 130.542 53.614C129.714 53.614 129.304 54.3071 129.304 55.5929C129.304 56.8788 129.714 57.7311 130.542 57.7311C131.069 57.7311 131.468 57.5306 131.86 57.0852V57.0882ZM127.516 55.5929C127.516 53.3427 128.525 52.1954 130.012 52.1954C130.72 52.1954 131.379 52.5287 131.86 53.0831V49.662H133.648V58.9904H132.067L131.961 58.2118C131.456 58.7545 130.846 59.1526 129.98 59.1526C128.536 59.1526 127.516 57.9287 127.516 55.5929Z" fill="#F8F8F8"/>
<path d="M102.395 68.1064C103.14 68.5753 104.014 68.8968 104.868 68.8968C105.771 68.8968 106.246 68.5163 106.246 67.956C106.246 66.3398 101.71 67.4251 101.71 64.1485C101.71 62.7299 102.836 61.565 104.794 61.565C105.885 61.565 106.868 61.8481 107.808 62.3082L107.135 63.7798C106.39 63.3994 105.61 63.2106 104.865 63.2106C104.063 63.2106 103.581 63.6088 103.581 64.122C103.581 65.7145 108.121 64.5909 108.121 67.9294C108.121 69.3893 107.04 70.5365 104.879 70.5365C103.619 70.5365 102.335 70.0912 101.532 69.5721L102.392 68.1064" fill="#F8F8F8"/>
<path d="M110.853 66.3631H113.409C113.409 65.5491 113.097 64.9033 112.266 64.9033C111.57 64.9062 111.019 65.3987 110.853 66.3631ZM112.22 63.5702C114.08 63.5702 115.112 64.8177 115.112 66.6109C115.112 66.8704 115.077 67.2155 115.04 67.4131H110.813C110.896 68.5249 111.412 69.0676 112.372 69.0676C113.005 69.0676 113.61 68.8464 114.149 68.5013L114.905 69.6604C114.114 70.2414 113.189 70.5363 112.226 70.5363C110.332 70.5363 108.985 69.2386 108.985 67.0179C108.988 64.8915 110.429 63.5702 112.217 63.5702" fill="#F8F8F8"/>
<path d="M116.234 63.7329H117.904L118.022 64.7592C118.515 63.8715 119.137 63.5471 119.859 63.5471C120.16 63.5471 120.423 63.5972 120.65 63.668L120.386 65.3756C120.157 65.2901 119.882 65.2252 119.535 65.2252C118.873 65.2252 118.432 65.6351 118.033 66.4019V70.3804H116.234V63.7299" fill="#F8F8F8"/>
<path d="M121.215 63.7324H122.98L124.336 68.3774H124.359L125.714 63.7324H127.408L125.273 70.377H123.35L121.215 63.7324Z" fill="#F8F8F8"/>
<path d="M134.429 63.5861C135.208 63.5861 136.014 63.8339 136.722 64.4149L135.819 65.6034C135.461 65.3085 135.017 65.0843 134.475 65.0843C133.647 65.0843 132.962 65.7656 132.962 67.022C132.962 68.2783 133.624 69.0363 134.475 69.0363C135.051 69.0363 135.435 68.8387 135.819 68.4936L136.805 69.579C136.097 70.2189 135.352 70.5433 134.429 70.5433C132.558 70.5433 131.151 69.2221 131.151 67.0249C131.151 64.8985 132.541 63.5891 134.429 63.5891" fill="#F8F8F8"/>
<path d="M139.061 66.3636H141.618C141.618 65.5496 141.305 64.9038 140.48 64.9038C139.784 64.9067 139.23 65.3992 139.061 66.3636ZM140.428 63.5707C142.288 63.5707 143.32 64.8182 143.32 66.6114C143.32 66.8709 143.285 67.2159 143.248 67.4135H139.021C139.104 68.5254 139.62 69.0681 140.58 69.0681C141.219 69.0681 141.818 68.8469 142.357 68.5018L143.113 69.6609C142.323 70.2419 141.397 70.5368 140.434 70.5368C138.54 70.5368 137.193 69.2391 137.193 67.0183C137.196 64.892 138.637 63.5707 140.425 63.5707" fill="#F8F8F8"/>
<path d="M144.742 68.529C145.364 68.8859 146.063 69.1218 146.723 69.1218C147.322 69.1218 147.683 68.936 147.683 68.5172C147.683 67.4319 144.201 68.1486 144.201 65.6624C144.201 64.3028 145.39 63.5861 146.768 63.5861C147.465 63.5861 148.259 63.7365 149.196 64.1789L148.545 65.453C147.923 65.1433 147.224 64.9959 146.806 64.9959C146.278 64.9959 145.943 65.1817 145.943 65.5886C145.943 66.6622 149.402 65.8983 149.402 68.4052C149.402 69.7883 148.287 70.5433 146.763 70.5433C145.777 70.5433 144.891 70.2838 144.06 69.8149L144.745 68.5261" fill="#F8F8F8"/>
<path d="M138.223 38.2753H140.023V39.8443H138.223V38.2753Z" fill="#F8F8F8"/>
<path d="M138.223 40.9582H140.023V47.6028H138.223V40.9582Z" fill="#F8F8F8"/>
<path d="M128.23 61.0544H130.03V62.6234H128.23V61.0544Z" fill="#F8F8F8"/>
<path d="M128.23 63.7328H130.03V70.3775H128.23V63.7328Z" fill="#F8F8F8"/>
</svg>
