<svg width="20" height="21" viewBox="0 0 20 21" fill="none" xmlns="http://www.w3.org/2000/svg">
<path fill-rule="evenodd" clip-rule="evenodd" d="M12.8317 8.20104C8.69648 7.33659 7.24974 7.23972 7.24974 5.71204C7.24974 4.29614 9.29527 3.85646 10.4808 3.85646C12.3857 3.85646 14.6361 4.27005 16.9308 5.36179L18.5986 1.68045C16.2476 0.491839 13.2296 0 10.3281 0C4.62151 0 0.79571 2.14621 0.634962 6.32683C0.470195 10.1386 3.81778 11.5657 6.89209 12.1581C9.85789 12.7245 12.8639 13.2126 12.9242 14.8446C12.9804 16.3499 11.5216 16.9945 8.76078 16.9945C6.2089 16.9945 3.83787 16.2344 1.41459 15.2954L0 19.2935C2.78496 20.3927 5.61413 21 8.53171 21C12.5826 21 15.5363 20.415 17.7185 18.5185C19.2255 17.2181 19.7198 15.6457 19.7198 14.1478C19.7198 10.9881 17.5939 9.20335 12.8317 8.20476V8.20104Z" fill="#F8F8F8"/>
</svg>
