<svg width="37" height="42" viewBox="0 0 37 42" fill="none" xmlns="http://www.w3.org/2000/svg">
<path d="M10.3182 15.8451C10.4649 15.4471 10.0151 15.0485 9.64322 15.2603L0.218934 20.626C-0.0729796 20.7922 -0.0729788 21.2078 0.218934 21.374L9.64323 26.7397C10.0151 26.9515 10.4649 26.5529 10.3182 26.1549C9.09595 22.8395 9.09595 19.1605 10.3182 15.8451Z" fill="#768C9B"/>
<path d="M26.9189 5.4243C26.547 5.63604 26.6721 6.21945 27.095 6.29315C30.6177 6.90705 33.8485 8.74653 36.1489 11.4481C36.4251 11.7724 37 11.5876 37 11.1641L37 0.432452C37 0.100046 36.6351 -0.10771 36.3432 0.058493L26.9189 5.4243Z" fill="#768C9B"/>
<path d="M37 30.8359C37 30.4124 36.4251 30.2276 36.1489 30.5519C33.8485 33.2535 30.6177 35.0929 27.095 35.7068C26.6721 35.7805 26.5469 36.3639 26.9188 36.5757L36.3432 41.9415C36.6351 42.1077 37 41.9 37 41.5675L37 30.8359Z" fill="#768C9B"/>
<path d="M19.7456 29.1562C13.3788 25.5312 13.3788 16.4688 19.7456 12.8438C26.1124 9.21882 34.0709 13.75 34.0709 21C34.0709 28.2499 26.1124 32.7812 19.7456 29.1562Z" fill="#768C9B"/>
</svg>
