<svg width="37" height="42" viewBox="0 0 37 42" fill="none" xmlns="http://www.w3.org/2000/svg">
<path d="M26.6818 26.1549C26.5351 26.5529 26.9849 26.9515 27.3568 26.7397L36.7811 21.374C37.073 21.2078 37.073 20.7922 36.7811 20.626L27.3568 15.2603C26.9849 15.0485 26.5351 15.4471 26.6818 15.8451C27.9041 19.1605 27.9041 22.8395 26.6818 26.1549Z" fill="#768C9B"/>
<path d="M10.0811 36.5757C10.453 36.364 10.3279 35.7805 9.90501 35.7068C6.38232 35.093 3.15153 33.2535 0.851084 30.5519C0.574927 30.2276 -1.32937e-06 30.4124 -1.34788e-06 30.8359L-1.81698e-06 41.5675C-1.83151e-06 41.9 0.364893 42.1077 0.656805 41.9415L10.0811 36.5757Z" fill="#768C9B"/>
<path d="M-4.87999e-07 11.1641C-5.0651e-07 11.5876 0.574928 11.7724 0.851085 11.4481C3.15153 8.74653 6.38233 6.90705 9.90503 6.29316C10.3279 6.21947 10.4531 5.63605 10.0812 5.42431L0.656807 0.0584936C0.364895 -0.107709 -4.37317e-09 0.100045 -1.89031e-08 0.43245L-4.87999e-07 11.1641Z" fill="#768C9B"/>
<path d="M17.2544 12.8438C23.6212 16.4688 23.6212 25.5312 17.2544 29.1562C10.8876 32.7812 2.92909 28.25 2.92909 21C2.92909 13.75 10.8876 9.21882 17.2544 12.8438Z" fill="#768C9B"/>
</svg>
