<svg width="40" height="40" viewBox="0 0 40 40" fill="none" xmlns="http://www.w3.org/2000/svg">
<path d="M39.4937 20.2952C39.4062 19.6284 39.3235 18.9635 39.2383 18.3026H20.5322V23.7638H33.7761C33.4593 26.0992 32.7398 28.2107 31.2498 29.924C28.7511 32.7966 25.095 34.5756 20.6818 34.5387C12.4615 34.4701 6.37659 28.5701 6.02129 20.3321C5.9536 18.7653 6.22325 16.9409 6.71281 15.5118C8.71405 9.66789 13.8378 5.46125 20.7753 5.46125C24.6959 5.46125 28.0712 6.94686 30.5295 9.37379L34.4583 5.51623C30.9158 2.04465 26.0554 0 20.3826 0C19.1103 0 17.8642 0.115498 16.6539 0.3369C7.21807 2.06236 0 10.2096 0 20C0 29.7904 7.35832 38.0952 16.9284 39.7114C18.0523 39.9011 19.2064 40 20.3826 40C23.881 40 27.2017 39.2273 30.0967 37.831C34.5372 35.6896 37.5725 31.5601 38.8508 26.7789C39.113 25.7992 39.3351 24.7885 39.466 23.7638C39.613 22.6181 39.6459 21.4546 39.4937 20.2952Z" fill="#F8F8F8"/>
</svg>
