<svg width="27" height="26" viewBox="0 0 27 26" fill="none" xmlns="http://www.w3.org/2000/svg">
<path d="M26.577 12.8324C26.5559 11.1841 26.2225 9.57978 25.5845 8.06076C24.9397 6.52348 24.0109 5.13817 22.8255 3.94359C21.6129 2.72181 20.1911 1.75817 18.5987 1.07949C16.9179 0.363181 15.1314 0 13.2891 0C11.4467 0 9.66025 0.363181 7.97949 1.07949C6.38706 1.75817 4.96528 2.72181 3.75266 3.94359C2.56721 5.13817 1.63848 6.52348 0.993659 8.06076C0.355632 9.57978 0.0222754 11.1841 0.0011337 12.8324C0.000378637 12.8883 0 12.9441 0 13C0 13.0559 1.10607e-06 13.1118 0.0011337 13.1676C0.0222754 14.8159 0.355632 16.4202 0.993659 17.9393C1.63848 19.4766 2.56721 20.8619 3.75266 22.0568C4.96528 23.2782 6.38706 24.2419 7.97949 24.9205C9.66025 25.6369 11.4464 26 13.2891 26C15.1318 26 16.9179 25.6369 18.5987 24.9205C20.1911 24.2419 21.6129 23.2782 22.8255 22.0568C24.0109 20.8619 24.9397 19.4766 25.5845 17.9393C26.2225 16.4202 26.5559 14.8159 26.577 13.1676C26.5778 13.1118 26.5782 13.0559 26.5782 13C26.5782 12.9441 26.5778 12.8883 26.577 12.8324ZM20.7242 13.1933C20.7234 13.225 20.7223 13.2567 20.7211 13.288C20.5781 17.4953 17.3052 20.8596 13.2891 20.8596C9.27291 20.8596 6.00009 17.4953 5.85701 13.288C5.85588 13.2567 5.85475 13.225 5.85399 13.1933C5.85248 13.1293 5.85172 13.0648 5.85172 13C5.85172 12.9352 5.85248 12.8708 5.85399 12.8067C5.85475 12.775 5.85588 12.7434 5.85701 12.7121C6.00009 8.50477 9.27291 5.14041 13.2891 5.14041C17.3052 5.14041 20.5781 8.50477 20.7211 12.7121C20.7223 12.7434 20.7234 12.775 20.7242 12.8067C20.7257 12.8708 20.7264 12.9352 20.7264 13C20.7264 13.0648 20.7257 13.1293 20.7242 13.1933Z" fill="#F8F8F8"/>
</svg>
