<svg width="69" height="39" viewBox="0 0 69 39" fill="none" xmlns="http://www.w3.org/2000/svg">
<path d="M57.4805 15.9265H47.4373C45.5242 15.9265 43.9676 14.3751 43.9676 12.4684C43.9676 10.5616 45.5242 9.01021 47.4373 9.01021H67.0447V0.988628H47.4373C41.0857 0.988628 35.9178 6.13925 35.9178 12.4697C35.9178 18.8002 41.0857 23.9508 47.4373 23.9508H57.4805C59.3936 23.9508 60.9489 25.5022 60.9489 27.409C60.9489 29.3157 59.3923 30.8671 57.4805 30.8671H37.2962L29.4818 6.89598C28.1375 2.7706 24.3085 0 19.9557 0C15.6029 0 11.7753 2.7706 10.431 6.89463L0 38.8901H8.46478L18.0875 9.37501C18.3066 8.70236 18.9692 8.02429 19.9557 8.02429C20.9422 8.02429 21.6049 8.70236 21.8239 9.37501L31.4466 38.8901H39.9114H57.4805C63.8322 38.8901 69 33.7395 69 27.409C69 21.0785 63.8322 15.9279 57.4805 15.9279V15.9265Z" fill="#F8F8F8"/>
</svg>
