<svg width="114" height="74" viewBox="0 0 114 74" fill="none" xmlns="http://www.w3.org/2000/svg">
<path d="M113.998 36.7728C113.998 36.7067 113.996 36.6406 113.993 36.5723C113.85 16.2499 88.3841 0 55.859 0C39.5431 0 25.5789 4.04155 15.6931 10.635C5.80735 17.2284 0 26.3737 0 36.5811C0 39.5583 0.511709 42.4495 1.48069 45.2217C3.83237 51.9518 8.88849 57.9634 15.9522 62.7256C25.9251 69.449 39.8893 73.6823 55.859 73.9335C56.3685 73.9423 56.878 73.9445 57.3854 73.9445C89.3138 73.9445 113.974 58.1529 114 36.7728H113.998ZM9.31963 36.0037C9.31963 20.3907 29.4069 8.11836 56.9978 8.11836C84.5887 8.11836 106.185 21.7393 105.436 36.7728C104.667 52.1501 86.2458 65.6036 56.9978 65.4251C29.4091 65.2576 9.31963 51.6168 9.31963 36.0037Z" fill="#F8F8F8"/>
</svg>
