<svg width="70" height="15" viewBox="0 0 70 15" fill="none" xmlns="http://www.w3.org/2000/svg">
<path fill-rule="evenodd" clip-rule="evenodd" d="M0 0.0176723C1.65607 1.50183 3.70389 3.02131 6.03663 4.13443C10.2569 6.13097 15.6881 3.18033 19.1249 3.18033C18.3414 2.47359 17.7181 2.33224 16.1511 0.0353378H11.7883C13.2129 1.50182 14.2992 2.04954 14.2992 2.04954C14.2992 2.04954 11.539 0.883428 9.11727 0.0176723H0ZM58.2294 0.0176723C56.8049 1.50183 55.7186 2.03188 55.7186 2.03188C55.7186 2.03188 58.4609 0.865756 60.9005 0H70C68.3439 1.48415 66.2961 3.02132 63.9633 4.11676C59.743 6.1133 54.3118 3.16266 50.8751 3.16266C51.6586 2.45592 52.2818 2.31458 53.8489 0.0176723H58.2116H58.2294ZM34.9198 5.53024C34.9198 5.53024 30.3612 3.8694 25.8738 3.78106C21.3864 3.69271 13.943 6.04263 11.3966 6.396C8.33375 6.83771 3.4902 5.7776 3.4902 5.7776C3.4902 5.7776 6.12566 9.78834 15.4388 9.87669C22.811 9.94736 28.26 5.86594 32.9967 5.95429C25.1971 8.99327 22.4726 13.6224 22.4726 13.6224L24.6629 14.1525C24.6629 14.1525 30.8064 7.01439 35.0089 6.66102C39.2292 7.01439 45.3548 14.1525 45.3548 14.1525L47.5451 13.6224C47.5451 13.6224 44.8206 8.99327 37.0211 5.95429C41.7578 5.86594 47.189 9.94736 54.579 9.87669C63.8921 9.78834 66.5276 5.7776 66.5276 5.7776C66.5276 5.7776 61.7018 6.82004 58.6212 6.396C56.0748 6.02496 48.6136 3.69271 44.144 3.78106C39.6566 3.8694 34.9198 5.53024 34.9198 5.53024Z" fill="#F8F8F8"/>
</svg>
