<svg width="34" height="24" viewBox="0 0 34 24" fill="none" xmlns="http://www.w3.org/2000/svg">
<path d="M27.7113 23.5243C25.6187 23.5243 23.5368 23.5026 21.4549 23.5569V22.3829C22.4042 22.3829 25.0362 22.3285 25.0362 21.0458V3.75041H24.9607L15.382 23.8613H14.3896L5.05901 3.75041H4.9835V21.0458C4.9835 22.3611 7.72335 22.3829 8.71574 22.3829L8.7481 23.5569C6.14848 23.4699 2.59962 23.4156 0.0323611 23.5569V22.3829C1.02475 22.3829 3.39784 22.3068 3.39784 21.0458V2.51114C3.39784 1.27188 0.949239 1.17404 0.0323611 1.17404L0 0C2.97716 0.130449 6.14848 0.130449 9.11485 0L17.0863 16.8497L25.2088 0.032613C28.0673 0.173933 31.1415 0.130449 34 0V1.17404C33.0508 1.17404 30.559 1.23926 30.559 2.51114V21.0458C30.559 22.3285 33.0076 22.3829 34 22.3829V23.5569C31.9181 23.4917 29.7931 23.5243 27.7113 23.5243Z" fill="#F8F8F8"/>
</svg>
