<svg width="38" height="40" viewBox="0 0 38 40" fill="none" xmlns="http://www.w3.org/2000/svg">
<path d="M38 0.988813H29.9474V29.9262C29.9474 30.9923 29.0764 31.8604 28.0067 31.8604C27.137 31.8604 26.3681 31.2799 26.1367 30.447L19.6192 7.28521C18.4216 2.99492 14.464 0 9.99198 0C4.48292 0 0 4.46797 0 9.95866V38.896H8.05265V9.95866C8.05265 8.89254 8.92365 8.02444 9.99334 8.02444C10.863 8.02444 11.6319 8.60498 11.8633 9.43781L18.3821 32.6037C19.5811 36.8913 23.5387 39.8848 28.008 39.8848C33.5185 39.8848 38 35.4169 38 29.9262V0.988813Z" fill="#F8F8F8"/>
</svg>
