<svg width="197" height="17" viewBox="0 0 197 17" fill="none" xmlns="http://www.w3.org/2000/svg">
<path d="M181.793 0.242156H185.726L193.541 10.9709V0.242156H197V15.9599H193.068L185.253 5.06163V15.9599H181.793V0.242156Z" fill="#10203D"/>
<path d="M170.978 16.2022C170.082 16.2022 169.253 16.1456 168.489 16.0326C167.743 15.9196 166.963 15.7259 166.15 15.4514C165.27 15.1608 164.582 14.6925 164.084 14.0467C163.586 13.3847 163.337 12.5855 163.337 11.6491V4.77104C163.337 3.99605 163.512 3.30178 163.86 2.68825C164.225 2.07472 164.69 1.59035 165.254 1.23514C165.752 0.928375 166.365 0.670045 167.096 0.460151C167.826 0.250258 168.506 0.121093 169.136 0.0726563C169.717 0.024219 170.331 0 170.978 0C171.741 0 172.405 0.0322915 172.969 0.0968742C173.533 0.145311 174.164 0.258331 174.861 0.435933C175.657 0.661972 176.313 0.936448 176.827 1.25936C177.341 1.58227 177.773 2.03435 178.121 2.6156C178.486 3.21299 178.669 3.93147 178.669 4.77104V11.6491C178.669 12.521 178.428 13.2717 177.947 13.9014C177.482 14.5311 176.835 15.0074 176.006 15.3303C174.512 15.9115 172.836 16.2022 170.978 16.2022ZM171.028 13.5139C171.575 13.5139 172.032 13.4978 172.397 13.4655C172.778 13.417 173.168 13.3363 173.567 13.2233C173.965 13.1103 174.263 12.9246 174.462 12.6663C174.678 12.3918 174.786 12.0527 174.786 11.6491V4.74682C174.786 4.00412 174.479 3.47939 173.865 3.17262C173.251 2.84971 172.297 2.68825 171.003 2.68825C169.709 2.68825 168.755 2.84163 168.141 3.1484C167.527 3.45517 167.22 3.98797 167.22 4.74682V11.6491C167.22 12.0527 167.328 12.3918 167.544 12.6663C167.759 12.9246 168.074 13.1103 168.489 13.2233C168.887 13.3363 169.269 13.417 169.634 13.4655C170.016 13.4978 170.48 13.5139 171.028 13.5139Z" fill="#10203D"/>
<path d="M156.32 0.242156H160.203V15.9599H156.32V0.242156Z" fill="#10203D"/>
<path d="M145.253 2.93041H140.275V0.242156H154.088V2.93041H149.135V15.9599H145.253V2.93041Z" fill="#10203D"/>
<path d="M130.704 16.2022C129.808 16.2022 128.979 16.1457 128.215 16.0327C127.469 15.9197 126.689 15.7259 125.876 15.4514C124.996 15.1608 124.308 14.6926 123.81 14.0468C123.312 13.3848 123.063 12.5856 123.063 11.6491V4.7711C123.063 3.99611 123.238 3.30185 123.586 2.68831C123.951 2.07478 124.416 1.59041 124.98 1.2352C125.478 0.928436 126.091 0.670106 126.822 0.460212C127.552 0.250319 128.232 0.121154 128.862 0.0727176C129.443 0.0242804 130.057 6.13364e-05 130.704 6.13364e-05C131.467 6.13364e-05 132.131 0.0323528 132.695 0.0969355C133.259 0.145373 133.89 0.258392 134.587 0.435994C135.383 0.662033 136.039 0.936509 136.553 1.25942C137.067 1.58234 137.499 2.03441 137.847 2.61566C138.212 3.21305 138.395 3.93153 138.395 4.7711V11.6491C138.395 12.521 138.154 13.2718 137.673 13.9015C137.208 14.5311 136.561 15.0074 135.732 15.3304C134.238 15.9116 132.562 16.2022 130.704 16.2022ZM130.754 13.514C131.301 13.514 131.758 13.4978 132.123 13.4655C132.504 13.4171 132.894 13.3364 133.292 13.2233C133.691 13.1103 133.989 12.9247 134.188 12.6663C134.404 12.3918 134.512 12.0528 134.512 11.6491V4.74688C134.512 4.00418 134.205 3.47945 133.591 3.17268C132.977 2.84977 132.023 2.68831 130.729 2.68831C129.435 2.68831 128.481 2.8417 127.867 3.14846C127.253 3.45523 126.946 3.98804 126.946 4.74688V11.6491C126.946 12.0528 127.054 12.3918 127.269 12.6663C127.485 12.9247 127.8 13.1103 128.215 13.2233C128.613 13.3364 128.995 13.4171 129.36 13.4655C129.742 13.4978 130.206 13.514 130.754 13.514Z" fill="#10203D"/>
<path d="M101.294 0.242156H106.82L110.802 11.4795L114.734 0.242156H119.936V15.9599H116.426V4.33508H116.352L112.27 15.9599H109.159L104.953 4.33508H104.853V15.9599H101.294V0.242156Z" fill="#10203D"/>
<path d="M87.851 16.2022C87.1209 16.2022 86.4655 16.1699 85.8848 16.1053C85.3207 16.0407 84.6985 15.9196 84.0182 15.742C83.2549 15.5483 82.6244 15.298 82.1267 14.9912C81.6289 14.6683 81.2141 14.2243 80.8822 13.6592C80.5338 13.0941 80.3596 12.4241 80.3596 11.6491V4.74682C80.3596 1.58227 82.8567 0 87.851 0C89.1286 0 90.8376 0.177603 92.978 0.532807V3.36637C91.0533 2.91429 89.3609 2.68825 87.9008 2.68825C87.2869 2.68825 86.8057 2.7044 86.4572 2.73669C86.1254 2.76898 85.777 2.84971 85.4119 2.97887C84.6321 3.2372 84.2422 3.81037 84.2422 4.69838V11.3827C84.2422 12.8035 85.5779 13.5139 88.2492 13.5139C89.3941 13.5139 91.0035 13.2798 93.0776 12.8116V15.6694C91.3022 16.0246 89.56 16.2022 87.851 16.2022Z" fill="#10203D"/>
<path d="M73.3426 0.242156H77.2252V15.9599H73.3426V0.242156Z" fill="#10203D"/>
<path d="M51.2262 0.242156H56.7514L60.7336 11.4795L64.6659 0.242156H69.8676V15.9599H66.3583V4.33508H66.2837L62.202 15.9599H59.0909L54.8848 4.33508H54.7852V15.9599H51.2262V0.242156Z" fill="#10203D"/>
<path d="M40.4111 16.2022C39.5151 16.2022 38.6855 16.1457 37.9222 16.0327C37.1756 15.9197 36.3957 15.7259 35.5827 15.4514C34.7033 15.1608 34.0147 14.6926 33.517 14.0468C33.0192 13.3848 32.7703 12.5856 32.7703 11.6491V4.7711C32.7703 3.99611 32.9445 3.30185 33.293 2.68831C33.658 2.07478 34.1226 1.59041 34.6867 1.2352C35.1845 0.928436 35.7984 0.670106 36.5285 0.460212C37.2585 0.250319 37.9388 0.121154 38.5693 0.0727176C39.15 0.0242804 39.764 6.13364e-05 40.4111 6.13364e-05C41.1743 6.13364e-05 41.838 0.0323528 42.4021 0.0969355C42.9663 0.145373 43.5968 0.258392 44.2937 0.435994C45.0901 0.662033 45.7455 0.936509 46.2598 1.25942C46.7742 1.58234 47.2056 2.03441 47.554 2.61566C47.9191 3.21305 48.1016 3.93153 48.1016 4.7711V11.6491C48.1016 12.521 47.861 13.2718 47.3798 13.9015C46.9152 14.5311 46.2681 15.0074 45.4385 15.3304C43.9452 15.9116 42.2694 16.2022 40.4111 16.2022ZM40.4608 13.514C41.0084 13.514 41.4647 13.4978 41.8297 13.4655C42.2113 13.4171 42.6012 13.3364 42.9995 13.2233C43.3977 13.1103 43.6963 12.9247 43.8954 12.6663C44.1111 12.3918 44.219 12.0528 44.219 11.6491V4.74688C44.219 4.00418 43.912 3.47945 43.2981 3.17268C42.6842 2.84977 41.7301 2.68831 40.4359 2.68831C39.1417 2.68831 38.1877 2.8417 37.5738 3.14846C36.9599 3.45523 36.6529 3.98804 36.6529 4.74688V11.6491C36.6529 12.0528 36.7608 12.3918 36.9765 12.6663C37.1922 12.9247 37.5074 13.1103 37.9222 13.2233C38.3204 13.3364 38.7021 13.4171 39.0671 13.4655C39.4487 13.4978 39.9133 13.514 40.4608 13.514Z" fill="#10203D"/>
<path d="M22.0518 2.93041H17.0741V0.242156H30.8872V2.93041H25.9344V15.9599H22.0518V2.93041Z" fill="#10203D"/>
<path d="M5.97322 0.242156H10.702L16.5259 15.9599H12.5935L11.15 11.8186H5.25146L3.83282 15.9599H0L5.97322 0.242156ZM10.3038 9.29987L8.26296 3.39056H8.1634L6.12255 9.29987H10.3038Z" fill="#10203D"/>
</svg>
